<?xml version="1.0" standalone="no"?>
<!DOCTYPE svg PUBLIC "-//W3C//DTD SVG 1.1//EN" "http://www.w3.org/Graphics/SVG/1.1/DTD/svg11.dtd" >
<svg xmlns="http://www.w3.org/2000/svg">
<metadata></metadata>
<defs>
<font id="linotte-regularuploaded_file" horiz-adv-x="1308" >
<font-face units-per-em="2048" ascent="1554" descent="-494" />
<missing-glyph horiz-adv-x="503" />
<glyph unicode="&#xfb01;" horiz-adv-x="1177" d="M25 848q-1 37 23 57q25 21 79 21l131 2v96q7 224 120 353q111 128 324 128q92 0 170 -24q68 -27 66 -78q0 -29 -18 -51q-18 -23 -46 -23q-22 0 -82 12q-65 13 -108 13q-126 0 -195 -81t-69 -212v-133q178 0 403 4q66 2 101 2q102 -6 98 -111q-2 0 -2 -370l2 -371 q0 -49 -17 -70q-18 -22 -65 -22q-84 0 -84 88v700h-31q-112 0 -201 -1t-204 -1q0 -29 2 -347t2 -351q0 -86 -82 -86q-84 0 -84 82v702l-113 -2q-59 0 -91 16q-29 14 -29 58z" />
<glyph unicode="&#xfb02;" horiz-adv-x="1216" d="M23 844q0 82 106 82h131v100q0 208 115 340q114 131 346 131q218 0 280 -22q54 -19 54 -127q-2 -448 -2 -1012q0 -76 8 -268q0 -74 -84 -80q-43 -2 -65 27.5t-23 90.5q-3 110 -5 565q-1 310 1 672q-60 7 -199 7q-127 0 -197 -93q-69 -91 -69 -217v-114h217q45 0 66 -19 q20 -18 20 -59q2 -34 -16 -54q-19 -22 -58 -22l-227 2q0 -138 1 -257t1 -259q0 -11 2 -97t2 -100q0 -73 -84 -73t-84 92l2 182q0 12 -0.5 41t-1 82.5t-0.5 103.5q-2 185 0 285h-162q-70 0 -75 70z" />
<glyph unicode="&#xfb03;" horiz-adv-x="1781" d="M23 850q0 78 100 78h129v121q1 195 95 320q93 124 298 124q141 0 141 -88q0 -30 -15 -51t-44 -21q-23 0 -57 6q-40 7 -56 7q-96 0 -148 -85t-52 -196v-137h454v104q0 217 115 346q114 127 326 127q100 0 166 -24q65 -22 65 -78q0 -30 -17 -51q-18 -23 -46 -23 q-23 0 -81 12q-63 13 -106 13q-125 0 -192 -82q-68 -83 -68 -213v-131q39 0 203 2t182 2q42 0 67 1t40 1q106 0 106 -111q-2 -372 -2 -741q0 -48 -16 -70t-64 -22q-84 0 -84 88v700q-123 0 -217 -1t-213 -1q0 -188 1 -348t1 -350q0 -86 -82 -86q-84 0 -84 82v704h-454 q0 -13 0.5 -46.5t1 -97.5t0.5 -125q2 -296 2 -421q0 -100 -82 -100q-84 0 -84 94v694h-111q-64 0 -91 15t-27 59z" />
<glyph unicode="&#xfb04;" horiz-adv-x="1808" d="M23 848q0 28 12 45q11 15 46 23t60 9q18 1 86 1h27v121q1 195 95 316q93 120 298 120q141 0 141 -84q0 -31 -16 -51q-16 -21 -45 -21q-15 0 -53 5q-35 5 -58 3q-50 0 -85 -16t-56 -51q-19 -31 -34 -68q-13 -33 -18 -87q-4 -53 -6 -85q-1 -20 -1 -86v-16h446v102 q0 208 122 339q121 130 351 130q206 0 260 -22q54 -19 54 -127q-2 -208 -2 -949q0 -19 2 -133t2 -127v-92q-7 -61 -78 -61q-51 0 -72 42q-20 40 -20 150q-8 357 -2 1165q-59 7 -181 7q-126 0 -201 -89t-75 -221v-112h215q47 0 67 -20t21 -58q0 -76 -74 -76q-63 0 -114 1 t-113 1q0 -90 4 -694q0 -94 -82 -94q-84 0 -84 86q0 336 -2 702h-442q-2 -74 0 -303q2 -306 2 -389q0 -96 -80 -96q-84 0 -84 88q0 368 -2 698h-113q-66 0 -91 14q-27 15 -27 60z" />
<glyph horiz-adv-x="0" />
<glyph horiz-adv-x="682" />
<glyph horiz-adv-x="0" />
<glyph horiz-adv-x="0" />
<glyph unicode="&#xd;" horiz-adv-x="681" />
<glyph unicode=" "  horiz-adv-x="503" />
<glyph unicode="&#x09;" horiz-adv-x="503" />
<glyph unicode="&#xa0;" horiz-adv-x="503" />
<glyph unicode="!" horiz-adv-x="475" d="M125 96q0 50 33 84q33 35 82 35q50 0 81 -30t31 -79q0 -53 -34 -83q-36 -31 -85 -31q-45 0 -76 28q-32 29 -32 76zM145 1319q-2 41 22 63q25 23 69 23q51 0 70 -31q18 -30 18 -104q-1 -276 -19 -762q-2 -74 -67 -74q-36 0 -51 21q-16 22 -17 71l-10 308z" />
<glyph unicode="&#x22;" horiz-adv-x="661" d="M102 1380q-2 34 19 55t61 21q70 0 70 -84q0 -66 -4 -170t-4 -131q-1 -76 -66 -76t-65 70q0 17 -5 160q-1 35 -2.5 72t-2.5 56t-1 27zM410 1391q0 30 22 48q21 17 53 17t53 -18t21 -47q-6 -208 -10 -306q-5 -86 -66 -86q-63 0 -65 64q0 59 -4 164t-4 164z" />
<glyph unicode="#" horiz-adv-x="1243" d="M53 422q0 72 84 72h154l57 366h-153q-69 0 -64 72q1 76 88 76h154l47 305q12 82 86 82q31 0 53 -20q20 -19 14 -50l-51 -317l279 -2l49 307q12 82 84 82q34 0 54 -20q19 -19 13 -50l-51 -319h170q70 0 66 -72q0 -40 -24 -57q-25 -17 -81 -17h-153l-58 -368h172 q64 0 64 -70q-1 -76 -105 -76h-153l-41 -258q-6 -50 -25 -74q-18 -22 -57 -22q-84 0 -72 80l43 274h-276l-39 -258q-7 -50 -28 -74q-19 -22 -58 -22q-37 0 -57 20q-21 21 -13 60l41 274h-153q-64 0 -60 76zM442 494l277 -2l59 368h-278z" />
<glyph unicode="$" horiz-adv-x="1067" d="M92 178q0 33 22 58q21 24 52 24q26 0 67 -18q139 -76 279 -76q130 0 212 64q83 65 83 176q0 52 -21 93q-20 39 -65 66q-46 27 -88 42q-47 16 -113 32q-87 20 -152 42q-62 21 -127 60t-98 101q-32 60 -32 143q0 144 107 251q108 108 259 132v133q0 72 66 72q69 0 69 -72 v-131q142 -7 269 -70q53 -29 53 -77q0 -29 -21 -52q-21 -22 -51 -22q-25 0 -74 20q-115 56 -241 56q-109 0 -192 -68t-83 -164q0 -32 10 -62q10 -29 35 -49q27 -21 42 -33q12 -10 66 -26l64 -18l76 -19q90 -22 157 -47q64 -24 126 -66t92 -107q31 -67 31 -152 q0 -156 -95 -262q-95 -105 -260 -134v-139q2 -78 -71 -78q-68 0 -68 70v139q-186 6 -315 78q-70 40 -70 90z" />
<glyph unicode="%" horiz-adv-x="1601" d="M68 1008q0 158 71 270q73 115 217 115q135 0 218 -100t83 -259t-88 -257q-89 -99 -217 -99q-114 0 -199 96q-85 95 -85 234zM199 1022q0 -90 42 -156q41 -65 111 -65q81 0 125 62q45 63 45 175q0 106 -43 168q-44 64 -123 64q-157 0 -157 -248zM347 40q-7 26 9 54 l383 631l361 623q16 28 42 37t54 -3q61 -33 23 -108l-72 -113q-54 -86 -125 -202q-70 -115 -119 -203q-64 -115 -133 -229q-81 -134 -94 -160l-195 -336q-15 -27 -44 -36q-31 -9 -58 5q-25 15 -32 40zM934 317q0 155 75 264t222 109q137 0 219 -99q82 -98 82 -257 q0 -155 -86 -253q-85 -97 -219 -97q-121 0 -207 96q-86 97 -86 237zM1067 328q0 -98 41 -162t117 -64q84 0 129 60q45 61 41 168q-5 243 -164 243q-84 0 -124 -70t-40 -175z" />
<glyph unicode="&#x26;" horiz-adv-x="1337" d="M92 401q0 233 225 377q-108 152 -108 285q0 140 99 242t261 102q103 0 176 -37q60 -30 60 -76q0 -26 -18 -49q-18 -22 -44 -22q-30 0 -57 14q-78 29 -129 29q-83 0 -140 -59t-57 -140q0 -134 140 -291q174 -192 467 -434q30 61 30 125q2 77 -34 141q-37 68 -99 78 q-78 8 -78 72q0 73 80 73q12 0 49 -3t48 -3l23 1q24 1 81 4t123 6q82 4 82 -64q0 -62 -60 -70q-35 -5 -165 -10q38 -27 65 -96q27 -67 27 -131q0 -110 -52 -219q43 -36 164 -119q47 -30 47 -66q0 -28 -20 -51q-21 -24 -47 -24q-41 0 -76 24q-70 44 -160 117 q-145 -145 -411 -145q-205 0 -348 119q-144 120 -144 300zM252 414q0 -126 96 -205q97 -80 242 -80q176 0 280 98q-155 134 -454 437l-13 12q-151 -99 -151 -262z" />
<glyph unicode="'" horiz-adv-x="356" d="M98 1382q2 72 84 72q74 0 74 -88q0 -152 -10 -279q-1 -44 -16 -70q-13 -24 -52 -24q-62 0 -67 72q-10 207 -13 317z" />
<glyph unicode="(" horiz-adv-x="559" d="M115 530q1 476 268 893q38 50 78 50q27 0 48 -21t21 -49q0 -21 -10 -37q-72 -121 -117 -212q-41 -84 -86 -261q-43 -171 -43 -361q0 -250 60 -428q59 -175 174 -378q16 -38 16 -50q0 -27 -22 -48t-51 -21q-49 0 -86 67q-254 413 -250 856z" />
<glyph unicode=")" horiz-adv-x="559" d="M29 1403q0 28 21 49t48 21q40 0 78 -50q267 -417 268 -893q5 -445 -249 -856q-37 -67 -86 -67q-29 0 -52 21q-22 21 -22 48q0 12 16 50q115 203 174 378q60 178 60 428q0 190 -43 361q-45 177 -86 261q-45 91 -117 212q-10 16 -10 37z" />
<glyph unicode="*" horiz-adv-x="747" d="M61 1126q0 26 21 41q20 15 51 7l191 -50l-7 199q0 63 56 63q59 0 59 -59l-4 -203l188 62q25 11 47 -6q21 -16 21 -45q0 -39 -47 -54l-176 -55l141 -166q21 -27 21 -45q0 -21 -18 -37q-17 -16 -40 -16q-27 0 -65 47l-125 170l-109 -168q-35 -47 -63 -47q-22 0 -40 15 t-18 36q0 22 17 45l125 166l-174 41q-52 12 -52 59z" />
<glyph unicode="+" horiz-adv-x="993" d="M45 563q1 33 27 49q24 15 73 15h279v123v144v77q0 37 22 55t54 18q71 0 71 -92v-327h306q71 0 71 -72q0 -36 -19 -54t-69 -18q-60 -2 -291 -2q0 -106 1 -193t1 -149q0 -67 -79 -67q-68 2 -68 88v321h-309q-38 0 -57 25q-18 24 -13 59z" />
<glyph unicode="," horiz-adv-x="421" d="M76 -145q0 19 36 59q37 41 44 74q6 10 -6 23q-15 17 -29 36q-17 23 -17 51q0 47 32 79t79 32q49 0 83 -36q34 -35 34 -87q0 -148 -150 -262q-28 -21 -55 -21q-15 0 -34 16q-17 14 -17 36z" />
<glyph unicode="-" horiz-adv-x="722" d="M80 489q0 78 96 78h383q82 0 82 -71q0 -44 -24 -63q-23 -19 -82 -19h-375q-39 0 -60 21q-20 20 -20 54z" />
<glyph unicode="." horiz-adv-x="421" d="M92 104q0 49 35 82t88 33q49 0 81 -33q32 -34 32 -82q0 -52 -35 -82t-90 -30q-48 0 -79 33q-32 34 -32 79z" />
<glyph unicode="/" horiz-adv-x="770" d="M39 10q0 22 18 78l521 1307q18 63 71 63q31 0 56 -17q26 -17 26 -46q0 -24 -26 -99l-517 -1290q-18 -57 -65 -57q-31 0 -56 17q-28 19 -28 44z" />
<glyph unicode="0" horiz-adv-x="1273" d="M113 633q0 146 28 274q29 134 88 244q60 113 166 180q107 68 248 68q244 0 382 -198t138 -521q0 -315 -152 -503q-153 -189 -378 -189q-218 0 -369 181t-151 464zM279 653q0 -129 38 -240q39 -115 121 -191q83 -77 191 -77q163 0 268 144q104 143 104 385q0 235 -95 402 t-265 167q-101 0 -177 -53q-75 -53 -113 -145q-37 -90 -55 -187q-17 -91 -17 -205z" />
<glyph unicode="1" horiz-adv-x="858" d="M100 1055q0 36 43 73q292 223 340 248q35 21 80 15q24 -5 42 -24t18 -46q0 -116 -1 -210t-1 -212v-258v-313v-258q0 -36 -25 -58q-23 -20 -61 -20t-60 22t-22 64q0 54 3 217q4 217 5 329q2 220 2 300v262l-230 -187q-32 -22 -59 -22q-29 0 -51 25q-23 26 -23 53z" />
<glyph unicode="2" horiz-adv-x="1107" d="M94 96q0 55 74 129q338 328 397 389l49 50l23 23l20 20l11 11q3 4 9.5 10.5t16.5 17.5t18 20q31 34 43 55q0 1 11 20t18 31q19 31 25 59q6 27 6 56q0 109 -82 181q-84 73 -209 73q-137 0 -258 -121q-51 -51 -92 -51q-30 0 -53 23t-23 55q0 49 66 104q70 65 163 108 q97 45 195 46q190 0 326 -116q135 -116 135 -298q0 -55 -13 -103q-13 -46 -29 -84q-14 -33 -56 -84q-25 -31 -63 -74q-7 -8 -82 -83q-23 -23 -51.5 -51t-33.5 -33l-338 -323q165 0 375 2q99 0 244 4q38 0 61 -24q23 -25 23 -56q0 -85 -94 -84h-252q-277 0 -481 2 q-45 0 -72 27t-27 69z" />
<glyph unicode="3" horiz-adv-x="1087" d="M90 170q0 36 23 59t49 23q28 0 92 -35q137 -80 262 -80q131 0 216 85t85 220q0 128 -90 195q-91 68 -221 68h-82q-41 -2 -64 21q-24 24 -24 62q0 41 41 80q61 57 206 208q38 39 78 81t58 61t24 25q-343 0 -532 -10q-90 0 -90 80q0 35 22 56q24 22 62 22q35 0 96 -1 t148 -1q19 0 213 2t210 2q50 0 74 -19q23 -18 23 -63q0 -37 -76 -119q-48 -44 -181 -182q-138 -143 -165 -170q172 4 306 -102q132 -105 132 -281q0 -218 -127 -345q-128 -128 -348 -128q-187 -2 -348 94q-72 40 -72 92z" />
<glyph unicode="4" horiz-adv-x="1161" d="M74 383q0 58 39 119l444 829q34 64 88 64q35 0 64 -23q29 -22 30 -51q0 -19 -16 -51q-26 -49 -88 -160q-17 -30 -53 -92t-53 -91q-24 -42 -97 -171l-168 -318l459 4l2 306q0 104 76 104q44 0 62 -21q19 -22 20 -69v-318l168 2q84 2 84 -71q0 -84 -74 -84h-180v-217 q0 -84 -76 -84q-84 0 -84 86q0 56 1 102t1 113q-108 2 -292 -1q-200 -3 -253 -3q-54 0 -79 28t-25 68z" />
<glyph unicode="5" horiz-adv-x="1116" d="M102 186q0 32 25 59q24 25 59 25q17 0 82 -34q151 -86 273 -86q126 0 215 82q90 82 90 217q0 117 -73 198q-72 80 -206 80q-84 0 -195 -45t-136 -45q-43 0 -75 26t-26 68q15 109 44 282q30 176 46 285q6 39 36 66t73 27h540q84 0 84 -78q0 -81 -94 -80l-489 6l-13 -88 l-53 -348q129 78 277 78q198 0 315 -120t117 -296q0 -209 -134 -343t-345 -134q-174 0 -344 92q-93 50 -93 106z" />
<glyph unicode="6" horiz-adv-x="1175" d="M119 676q0 318 149 522q150 205 394 205q160 0 278 -57q68 -30 68 -84q0 -34 -21 -56t-53 -22q-14 0 -80 24q-96 35 -205 35q-143 0 -251 -135q-107 -134 -109 -332v-69q47 79 150 129q102 49 206 49q184 0 313 -108t129 -316q0 -204 -134 -338q-133 -133 -347 -133 q-190 0 -317 118q-128 119 -156 330q-14 147 -14 238zM299 451q0 -132 92 -219q91 -87 223 -87q134 0 222 88t88 230q0 133 -84 204q-83 70 -230 68q-137 -2 -224 -78q-87 -77 -87 -206z" />
<glyph unicode="7" horiz-adv-x="1064" d="M72 1313q0 78 84 78q30 0 386 -2q91 -1 214.5 -2t158.5 -1q84 0 84 -77q0 -45 -59 -133q-142 -188 -254 -409q-116 -229 -176 -419q-52 -152 -80 -278q-7 -39 -27 -59q-17 -17 -65 -17q-98 0 -80 102q23 106 88 287q152 442 445 854q-80 2 -205 0q-166 -2 -178 -2 q-26 0 -132 -2t-114 -2q-90 0 -90 82z" />
<glyph unicode="8" horiz-adv-x="1177" d="M98 375q0 130 71 219t187 129q-75 32 -133 113q-57 79 -57 182q0 173 127 281q128 108 301 108q178 0 307 -105t129 -266q0 -111 -55 -191t-148 -118q109 -35 181 -117t73 -198q2 -203 -135 -316q-136 -112 -350 -112q-218 0 -358 105t-140 286zM266 387q1 -120 87 -185 t231 -65q154 0 242 72q89 72 87 197q-2 113 -93 179t-218 66q-141 2 -238 -66q-99 -69 -98 -198zM328 1014q2 -102 80 -167q79 -65 190 -65q116 0 193 72q75 70 73 182q-1 94 -80 160q-78 66 -188 66q-117 0 -194 -68q-76 -67 -74 -180z" />
<glyph unicode="9" horiz-adv-x="1177" d="M92 940q0 198 144 331t344 132q224 -1 358 -165q133 -163 133 -490q0 -395 -138 -578q-137 -182 -409 -182q-171 0 -297 71q-61 34 -61 86q0 35 20 58q21 24 54 24q20 0 84 -26q114 -51 211 -51q177 0 276 139q98 137 96 403q-43 -82 -141 -138q-97 -56 -219 -56 q-175 0 -315 118t-140 324zM260 936q0 -134 88 -210q90 -78 234 -79q127 0 217 81t90 212q0 132 -93 221q-92 88 -227 88q-126 0 -217 -88q-92 -89 -92 -225z" />
<glyph unicode=":" horiz-adv-x="421" d="M92 104q0 49 35 82t88 33q49 0 81 -33q32 -34 32 -82q0 -52 -35 -82t-90 -30q-48 0 -79 33q-32 34 -32 79zM92 821q0 49 35 82t88 33q49 0 81 -33q32 -34 32 -82q0 -53 -35 -83q-33 -29 -90 -29q-48 0 -79 32q-32 34 -32 80z" />
<glyph unicode=";" horiz-adv-x="421" d="M78 -145q0 19 36 59q37 41 44 74q6 10 -24 42q-30 31 -30 68q0 48 33 79q34 32 80 32q49 0 83 -36q34 -35 34 -87q0 -149 -152 -262q-28 -21 -53 -21q-15 0 -34 16q-17 14 -17 36zM94 821q0 49 35 82t88 33q51 0 83 -33q32 -34 32 -82q0 -53 -35 -83q-33 -29 -90 -29 q-48 0 -80 32q-33 33 -33 80z" />
<glyph unicode="&#x3c;" horiz-adv-x="993" d="M70 545q0 58 67 98q14 9 633 354q40 19 61 19q29 0 50 -26q20 -24 20 -56q0 -29 -29 -47l-636 -342q84 -45 342 -172q253 -124 315 -160q29 -18 29 -47t-21 -56q-22 -28 -47 -28q-35 0 -63 16l-652 346q-69 39 -69 101z" />
<glyph unicode="=" horiz-adv-x="993" d="M68 332q0 78 90 78q58 0 133 -1t172 -1h391q70 0 70 -74q0 -42 -24 -60q-25 -19 -79 -20h-686q-67 0 -67 78zM68 762q0 76 90 76q58 0 133 -1t172 -1q134 0 231 1t160 1q70 0 70 -76t-103 -78h-197h-307h-182q-67 0 -67 78z" />
<glyph unicode="&#x3e;" horiz-adv-x="993" d="M70 166q0 29 30 47q68 41 318 162q262 127 340 170l-637 342q-31 19 -31 47q0 33 21 57q22 25 51 25q24 0 59 -19q541 -295 635 -354q66 -41 66 -98q0 -62 -68 -101l-651 -346q-32 -16 -64 -16q-27 0 -49 28q-20 26 -20 56z" />
<glyph unicode="?" horiz-adv-x="991" d="M84 1200q0 42 45 72q167 133 350 133q171 0 298 -106q126 -105 126 -275q0 -66 -24 -120q-23 -52 -69 -95q-45 -42 -85 -70q-25 -18 -94 -61l-6 -3l-7 -3q-3 -1 -6 -4q-95 -61 -100 -140q-1 -17 6 -35q8 -19 8 -36q0 -33 -22 -51q-24 -19 -58 -19q-50 0 -76 41t-26 109 q0 141 168 237q50 29 84 50q26 16 67 50t58 71q16 35 16 79q0 98 -77 163q-76 64 -185 64q-119 0 -225 -86q-59 -43 -90 -43q-27 0 -52 25q-24 24 -24 53zM328 98q0 49 34 82t89 33t87 -32q31 -31 31 -81q0 -56 -34 -84t-86 -28q-57 0 -89 29t-32 81z" />
<glyph unicode="@" horiz-adv-x="1880" d="M100 334q0 253 104 470q104 218 311 353q209 137 482 137q336 0 561 -210q224 -209 224 -498q0 -285 -96 -444q-95 -158 -281 -158q-84 0 -145 50q-59 48 -74 136q-45 -78 -122 -125t-169 -47q-155 0 -259 102t-104 254q0 182 111 316q111 133 297 133q78 0 145 -37 q69 -38 107 -100q2 10 6 34q5 30 6 35q21 60 70 60q84 0 69 -95l-18 -133l-18 -227q-24 -219 110 -219q107 0 162 130q55 129 55 329q0 246 -185 410q-186 165 -472 165q-317 0 -523 -243q-206 -244 -206 -578q0 -276 193 -462q192 -184 456 -189q181 -2 365 73q55 25 73 25 q29 0 48 -24q20 -25 20 -52q0 -37 -41 -61q-202 -105 -461 -105q-211 0 -393 97t-295 282t-113 416zM686 369q0 -104 67 -169t160 -65q122 0 188 88q66 89 66 223q0 101 -68 162q-70 62 -159 62q-115 0 -184 -88q-70 -90 -70 -213z" />
<glyph unicode="A" d="M51 72q0 26 31 100l215 504q50 113 260 653q27 66 98 66q74 0 103 -68q25 -57 138 -350q27 -72 58 -153t50 -131t30 -77q0 -2 2 -5t5 -9t5 -12q3 -8 7.5 -18t5.5 -13l180 -438q16 -39 16 -60q0 -25 -27 -47q-26 -22 -65 -22q-37 0 -55 15t-35 56q-123 315 -123 316 q-84 2 -389 2h-209q-4 -9 -56 -145q-53 -139 -60 -154q-30 -67 -52 -80q-18 -8 -37 -8q-96 0 -96 78zM403 522q91 -2 188 -2q146 0 306 4q-1 4 -11.5 32t-25 68t-30.5 84q-77 214 -103 284q-54 145 -72 190q-84 -242 -252 -660z" />
<glyph unicode="B" horiz-adv-x="1222" d="M170 1288q0 86 104 96q88 9 332 9q188 0 316 -98q129 -99 129 -273q0 -106 -52 -187q-53 -81 -137 -122q125 -30 198 -111t73 -205q0 -170 -97 -272q-97 -101 -262 -119q-88 -8 -348 -8h-152q-95 0 -100 119l2 442l-2 488q0 15 -2 121t-2 120zM338 1237q2 -36 2 -483 q121 0 285 4q122 1 193 76q70 74 69 192q-2 107 -83 161t-202 54q-43 1 -87 1q-88 0 -177 -5zM340 614l4 -469q54 -2 299 -2q144 1 233 62q89 60 89 180q0 233 -318 233z" />
<glyph unicode="C" horiz-adv-x="1245" d="M308 1199q199 202 457 202h5q166 0 299 -60q90 -41 90 -94q0 -38 -19 -61q-20 -25 -57 -25q-23 1 -79 27q-123 57 -252 57q-188 0 -332 -162q-145 -163 -146 -405q0 -220 139 -377q138 -156 347 -158q154 0 278 82q4 3 16 9q3 1 5.5 3t4.5 3.5t3 2.5q5 3 12 6q3 1 17 4 q5 1 18 1q29 0 47 -27q19 -29 19 -59q0 -67 -142 -127q-139 -59 -295 -59q-260 2 -450 190q-189 188 -189 493q0 327 204 534z" />
<glyph unicode="D" horiz-adv-x="1382" d="M164 1274q0 119 166 119q59 0 140 1t136 1q298 -15 493 -186t195 -470q0 -733 -778 -739q-172 0 -252 4q-98 6 -98 121l4 557zM334 203q0 -33 30 -39t140 -6q620 0 620 559q0 174 -82 295q-83 122 -207 174q-127 53 -286 53q-141 0 -215 -6v-1030z" />
<glyph unicode="E" horiz-adv-x="1112" d="M180 119q0 44 2 82l2 28q0 44 1 77q1 17 1.5 57t0.5 60q1 24 1.5 79.5t0.5 83.5q1 64 1 198q0 145 1 260q2 230 2 261q0 49 32 66q33 18 101 18h98q53 0 275 2q42 0 94.5 0.5t81 1t43.5 0.5q93 0 98 -74q0 -69 -55 -76q-82 -2 -494 -2h-107q-2 -114 -2 -248l-2 -198v-39 h103q221 0 356 6q58 0 80 -14q25 -16 25 -62q-5 -74 -93 -74h-473v-147q0 -16 -2 -158t-2 -157q298 0 541 4q22 0 37 1t35 1q71 0 71 -74q0 -42 -22 -63q-23 -22 -82 -23h-537q-137 0 -173 20q-39 22 -40 103z" />
<glyph unicode="F" horiz-adv-x="1075" d="M182 96q0 35 1 72t1 80q0 69 1 121t1 123l2 536l-4 256v6q0 41 28 69q30 30 71 30h118q219 0 471 2q38 2 82 2q34 0 52 -21t18 -53q0 -78 -70 -80h-123h-475q0 -79 -1 -143t-1 -142v-217h197l326 4q34 2 51 -20q18 -23 18 -57q0 -74 -82 -78q-82 0 -158 1t-159 1h-195 v-182l2 -314q0 -98 -82 -98q-51 0 -70 23q-20 25 -20 79z" />
<glyph unicode="G" horiz-adv-x="1456" d="M106 692q0 295 207 503t482 208q229 0 405 -113q51 -33 51 -73q0 -34 -19 -59t-52 -25q-36 0 -95 36q-122 82 -301 82q-193 0 -349 -164q-156 -163 -156 -380q0 -264 139 -413q140 -151 370 -151q185 0 299 133q116 135 117 314h-289q-30 1 -48 23q-17 20 -17 51 q0 67 70 73q20 2 348 2q63 0 83 -29q21 -30 21 -96q0 -278 -168 -453t-430 -175q-295 0 -481 195q-187 196 -187 511z" />
<glyph unicode="H" horiz-adv-x="1427" d="M174 1309q0 82 90 82q82 0 82 -72q0 -110 2 -576h31h78h118q103 0 188 1t189 1l127 3q0 19 -2 287q0 52 -0.5 114t-1 95t-0.5 50q2 103 88 103q84 0 84 -90q0 -112 -1 -302v-153q0 -130 1 -170l6 -614q0 -76 -86 -76q-88 0 -88 78v190l-2 330q-37 0 -357 -2t-372 -2 l4 -520q0 -74 -90 -74q-84 0 -84 74q0 82 3 346q2 145 2 262q0 78 -1 145z" />
<glyph unicode="I" horiz-adv-x="561" d="M195 72q0 48 1 88t1 92l2 573q0 6 -2 218t-2 268q0 86 90 86q37 0 59 -21q23 -21 23 -57q0 -44 -2 -510v-328l2 -393q0 -96 -86 -96q-41 0 -64 20q-22 19 -22 54v6z" />
<glyph unicode="J" horiz-adv-x="991" d="M47 180q0 32 22 56q21 22 56 22q9 0 20 -3q10 -3 23 -11q4 -3 10.5 -8t8.5 -6q7 -4 23 -17q5 -4 21 -16q64 -52 144 -52q71 0 121 27q47 26 77 68q29 41 44 113q16 75 20 144q4 63 4 177l-12 641v6q0 36 21 57q25 25 63 25q90 0 90 -84q0 -70 5 -283t5 -288 q0 -144 -2 -246q-6 -246 -109 -381q-102 -133 -333 -133q-81 0 -156 34q-79 36 -117 68q-49 43 -49 90z" />
<glyph unicode="K" horiz-adv-x="1241" d="M174 66q0 30 1 58t1 66q0 74 2 556t2 561q0 90 86 90t86 -82q0 -35 -2 -335t-2 -325l613 693q43 49 83 49q33 0 61 -26t28 -56q0 -27 -27 -60q-45 -51 -379 -415q-11 -11 -38 -42t-46 -50l313 -373l195 -228q33 -33 33 -73q0 -35 -28 -61q-26 -25 -64 -25q-45 0 -78 41 q-22 28 -51 67l-431 545q-30 -35 -100 -107q-18 -18 -38.5 -39t-31.5 -32.5t-16 -16.5v-380q0 -76 -86 -76h-7q-35 0 -55 18q-24 21 -24 58z" />
<glyph unicode="L" horiz-adv-x="1011" d="M174 113v80q0 101 4 256q5 175 6 262v600q0 41 26 62q27 22 66 22q78 0 78 -84q0 -107 -4 -451q0 -113 -1 -203q-1 -133 -3 -200q0 -121 -1 -167t-1 -101v-39q172 0 242 2l313 12q80 0 80 -74q0 -88 -84 -88h-238q-236 0 -311 -4q-15 -1 -28 -1q-74 0 -105 19 q-37 22 -39 97z" />
<glyph unicode="M" horiz-adv-x="1740" d="M119 84q28 168 99 698q20 150 38.5 288.5t26.5 194.5t8 60q6 32 41 50q34 18 73 18q62 -2 97 -95l317 -903q6 -21 18 -48q4 -8 7 -16.5t6 -17.5t5 -13q7 -19 9 -32l19 58q59 138 114 280q9 24 133 349q112 295 125 327q38 91 86 113q15 3 30 3q7 0 15 -1q58 -5 74 -33 q15 -52 39 -251q40 -329 65 -543q16 -133 34.5 -296.5t21.5 -189.5v-12q0 -84 -82 -84q-74 0 -84 78q-19 156 -55 524q-29 293 -53 518l-377 -973q-38 -92 -110 -92h-3q-36 0 -56 22q-20 21 -36 66q-59 157 -199 558q-38 110 -73.5 212t-53.5 154t-22 63 q-6 -47 -21.5 -176.5t-24.5 -207.5q-11 -92 -29 -238.5t-24 -196.5q-23 -192 -30 -238q-12 -71 -86 -71q-41 0 -64 27q-19 22 -19 53q0 7 1 14z" />
<glyph unicode="N" horiz-adv-x="1447" d="M172 76q0 35 0.5 103.5t1 197t0.5 237.5q0 142 -1 238t-1 238v217q0 38 30 62t74 24q27 0 52 -17q27 -18 36 -30q3 -4 8.5 -11.5t13.5 -19t15 -21.5l502 -710l217 -305q-6 178 -6 481l-4 506q0 62 16 93q17 32 70 32q50 0 65 -29q15 -28 15 -92v-680q4 -108 4 -504 q0 -41 -28 -66q-27 -24 -74 -24q-39 0 -59 19q-21 19 -60 75l-725 1034q-1 -51 -1 -127q0 -151 3 -400q4 -368 4 -495q0 -58 -18 -83t-62 -25q-88 0 -88 82z" />
<glyph unicode="O" horiz-adv-x="1527" d="M104 659q0 165 58 312q56 141 152 237q94 94 215 147q114 50 236 50h9q272 0 466 -197t194 -495q0 -307 -190 -520q-189 -211 -478 -211q-172 0 -320 80t-245 239t-97 358zM272 680q0 -236 148 -387q147 -150 360 -150q203 0 345 169q141 168 141 389v6q-1 234 -156 387 q-152 151 -358 151q-192 0 -336 -162t-144 -403z" />
<glyph unicode="P" horiz-adv-x="1169" d="M178 59q0 219 1 412t1 434q0 58 -1 107t-1 100v197q12 69 103 80q91 6 319 6q200 0 340 -90q168 -116 168 -351v-6q0 -143 -89 -265q-89 -121 -228 -159q-72 -18 -396 -18h-47q0 -19 2 -211t2 -227q0 -80 -86 -80q-41 0 -64 19q-24 19 -24 52zM346 1235q0 -4 2 -174 t2 -197q0 -53 1 -99t1 -103h101q43 -1 81 -1q139 0 205 17q96 23 148 103q54 83 55 175v5q0 155 -119 227q-95 53 -245 53q-180 0 -232 -6z" />
<glyph unicode="Q" horiz-adv-x="1550" d="M111 680q0 286 188 501q189 216 446 222q11 4 25 4q280 0 475 -186t197 -484v-16q0 -441 -324 -645q-37 -26 -96 -49q29 -18 103 -74q75 -57 137 -86q57 -27 120 -27q56 0 92 21q35 20 50 46q16 27 35 46q20 20 47 20q36 0 60 -21t24 -61q0 -84 -96 -157 q-91 -70 -209 -70h-7q-81 0 -150 34q-74 36 -180 119q-101 79 -155 113q-70 45 -117 47l-69 11q-114 17 -210 62q-104 49 -190 125q-91 80 -143 210q-53 132 -53 295zM283 688q0 -239 150 -395q150 -157 390 -158q207 27 327 183t120 393q0 175 -80 302q-79 125 -195 180 q-114 54 -245 54q-176 0 -322 -165q-145 -164 -145 -394z" />
<glyph unicode="R" horiz-adv-x="1239" d="M180 98q4 113 4 961q0 59 -1 109t-1 110q0 106 140 111q109 4 200 4q105 0 150 -4q198 -12 315 -123t117 -295q0 -151 -79 -255q-81 -107 -210 -141l318 -440q28 -38 28 -61q0 -34 -26 -57t-64 -25q-37 0 -74 43l-344 497h-305q0 -115 1 -222t1 -214q0 -99 -76 -100 q-55 0 -74 23q-20 25 -20 79zM346 1241l2 -561h246q156 0 249 69q94 69 95 220q0 132 -89 203t-247 71q-174 0 -256 -2z" />
<glyph unicode="S" horiz-adv-x="1153" d="M109 160q0 35 22 61q23 27 55 27q27 0 72 -21q155 -82 303 -82q139 0 230 68q90 67 90 182q0 110 -85 162q-89 55 -241 84q-92 18 -159 41q-70 24 -133 61q-67 39 -101 102q-35 64 -35 146q0 177 143 295q145 119 334 119q195 0 350 -76q56 -27 56 -82q0 -28 -22 -53 t-54 -25q-30 0 -76 23q-128 57 -262 57q-125 0 -212 -69t-87 -176q0 -38 9 -66q9 -29 38 -50l45 -34q16 -12 68 -27q15 -4 29 -8t24.5 -6.5t13.5 -3.5q4 -1 15 -3.5t29 -6.5l36 -8q83 -19 176 -50q76 -25 139 -67q65 -43 100 -111q34 -67 34 -157q0 -190 -135 -305 q-134 -115 -355 -115h-5q-210 0 -374 84q-75 34 -75 90z" />
<glyph unicode="T" horiz-adv-x="1165" d="M33 1313q0 78 80 78q32 0 64 -1t154 -1h261q15 0 45.5 0.5t87.5 1t105 0.5q52 0 103.5 0.5t77 1t33.5 0.5q89 0 89 -72q0 -45 -23 -65q-22 -19 -74 -19h-370v-123q0 -131 1 -207l3 -342q0 -72 1.5 -229t2.5 -242q0 -100 -92 -100q-42 0 -61 20t-19 72l2 770q0 106 -1 190 t-1 191q-137 0 -393 -2q-76 0 -76 78z" />
<glyph unicode="U" horiz-adv-x="1396" d="M168 563q0 238 1 410t1 317q0 94 80 94q46 0 67 -21t21 -67q-2 -136 -2 -733q0 -211 96 -313q97 -103 273 -103q158 0 260 117q103 118 104 299q1 49 1 120q0 107 -2 264q-3 282 -3 362q0 82 86 82q84 0 84 -101l2 -672v-8q0 -293 -143 -456q-145 -166 -408 -166 q-242 0 -380 150t-138 425z" />
<glyph unicode="V" d="M51 1317q0 34 32 57t69 23q56 0 77 -60q9 -23 33 -91l45 -124l352 -903q36 90 70 180l358 934q23 64 82 64q32 0 63 -22q30 -21 30 -54q0 -18 -25 -84q-36 -98 -176 -434q-2 -2 -35 -89q-35 -92 -78 -194l-182 -444q-38 -80 -115 -80q-45 0 -66 22q-21 23 -44 76 q-46 117 -85 214q-16 39 -67 163t-87 211q-17 41 -226 555q-25 66 -25 80z" />
<glyph unicode="W" horiz-adv-x="1730" d="M82 1305q-2 10 -2 19q0 27 18 47q25 28 68 28q71 0 86 -72l203 -1061q61 161 297 920q30 104 108 104q35 0 58 -19q24 -19 34 -46l314 -934q142 661 204 1007q11 56 31 78q21 23 64 23q35 0 63 -26q20 -20 20 -48q0 -8 -1 -16l-265 -1215q-11 -55 -29 -77 q-19 -23 -71 -23q-30 0 -53 15t-32 34q-6 13 -19 47l-316 932q-89 -288 -303 -899q-22 -56 -24 -61q-11 -22 -37 -45t-60 -23q-65 1 -89 47q-24 45 -48 172q-7 40 -10 51z" />
<glyph unicode="X" horiz-adv-x="1275" d="M61 72q0 28 31 73l440 570l-409 522q-33 43 -33 72q0 32 28 58t62 26q40 0 86 -64l371 -495l375 501q45 60 88 60q33 0 61 -25q27 -24 27 -53t-29 -70l-420 -536l439 -555q39 -50 39 -78q0 -31 -30 -55q-31 -25 -65 -25q-30 0 -45 14q-20 18 -41 47l-288 394l-111 139 l-92 -117l-316 -432q-37 -49 -77 -49q-37 0 -63 23q-28 25 -28 55z" />
<glyph unicode="Y" horiz-adv-x="1226" d="M51 1313q0 31 28 56q27 24 62 24q39 0 84 -68q388 -620 393 -625q9 13 42 68q30 50 126 204q35 56 112.5 179.5t115.5 183.5q39 60 80 60q34 0 60 -23t26 -53q0 -26 -29 -70l-453 -694q0 -139 -1 -243t-1 -242q0 -36 -24 -55q-23 -19 -62 -19q-38 0 -61 22q-25 23 -25 62 t1 71t1 72q0 102 1 170t1 156l-10 24l-436 664q-31 51 -31 76z" />
<glyph unicode="Z" horiz-adv-x="1118" d="M78 66q-2 10 -2 20q0 14 4 27q18 69 106 186l123 174l398 561l129 201q-190 0 -341 -1q-227 -2 -339 -3q-76 0 -76 76q0 82 84 82h434q11 0 179 2t184 2q88 0 88 -78q0 -31 -48 -105l-86 -135l-485 -704l-149 -219q166 0 419 5t281 5q84 0 84 -82q0 -78 -107 -78 q-166 -2 -761 -2q-113 0 -119 66z" />
<glyph unicode="[" horiz-adv-x="610" d="M152 -246q0 130 6 452t6 482q0 194 -1 373t-1 315q1 43 27 67q24 23 65 23q40 0 108 1t146 1q72 0 72 -75q0 -70 -74 -70h-189q0 -281 -2 -477q0 -70 -3 -320q-3 -251 -3 -315q-2 -150 -2 -432q52 0 92 1t90 1q74 0 74 -74t-80 -74h-223q-57 0 -83 28q-25 26 -25 93z" />
<glyph unicode="\" horiz-adv-x="770" d="M39 1395q0 28 26 46q24 17 54 17q51 0 74 -63l518 -1307q20 -53 20 -78q0 -26 -29 -44q-27 -17 -57 -17q-44 0 -65 57l-514 1290q-27 78 -27 99z" />
<glyph unicode="]" horiz-adv-x="610" d="M31 1393q0 75 71 75q77 0 145 -1t107 -1t66 -24q26 -23 26 -66v-174v-290v-224q0 -123 7 -499q6 -323 6 -435q0 -65 -26 -93t-83 -28h-225q-78 0 -78 74t74 74q50 0 90 -1t92 -1q0 282 -2 432q-3 116 -5 318q-3 251 -3 317q-5 252 0 477h-189q-73 0 -73 70z" />
<glyph unicode="^" horiz-adv-x="1024" d="M43 608q0 36 16 64l347 651q40 70 102 70q55 0 96 -68q92 -145 354 -633q21 -34 21 -61q0 -28 -26 -49q-25 -21 -58 -21q-29 0 -47 29q-141 274 -342 637q-51 -95 -171 -342q-123 -254 -159 -316q-21 -28 -49 -28q-30 0 -56 20q-28 22 -28 47z" />
<glyph unicode="_" horiz-adv-x="1024" d="M23 -76q0 76 102 76q187 0 417 -1t382 -1q77 0 77 -74q0 -80 -108 -80h-795q-39 0 -58 24q-19 23 -17 56z" />
<glyph unicode="`" horiz-adv-x="489" d="M74 1399q0 27 25 49t53 22q39 0 63 -34l180 -224q19 -24 19 -45q0 -20 -20 -40q-19 -19 -42 -19q-21 0 -47 20q-146 143 -205 211q-26 32 -26 60z" />
<glyph unicode="a" horiz-adv-x="1163" d="M92 436q0 217 134 362q134 144 333 144q197 0 303 -160q0 54 6 84q11 70 74 70q47 0 64 -28q16 -26 16 -85l-2 -159l-4 -310q0 -140 10 -291q0 -69 -88 -69q-45 0 -58 37q-14 39 -20 135q-102 -178 -332 -178q-192 0 -314 131t-122 317zM264 442q0 -132 83 -220 q83 -87 202 -87q135 0 223 91t88 237q0 154 -89 243t-210 89q-126 0 -212 -101q-85 -100 -85 -252z" />
<glyph unicode="b" horiz-adv-x="1181" d="M150 94l8 414l-8 891q1 82 83 82q86 0 86 -80q-4 -191 -4 -637q49 89 141 139q91 49 197 49q189 0 313 -142t124 -331q0 -207 -134 -352q-133 -143 -329 -143q-99 0 -187 48t-133 132l-2 -98q-7 -72 -80 -72h-4q-71 0 -71 100zM313 463q0 -144 89 -236t206 -92 q128 0 219 97q93 99 93 245q0 128 -86 225t-205 97q-129 0 -222 -94q-94 -96 -94 -242z" />
<glyph unicode="c" horiz-adv-x="915" d="M88 436q1 198 133 355q130 155 340 155q137 0 244 -63q39 -27 39 -68q0 -29 -21 -54q-21 -26 -51 -26q-12 0 -82 29q-64 29 -139 29q-127 0 -211 -108t-84 -230q0 -134 78 -224t203 -90q109 0 176 43q61 33 80 33q28 0 50 -28q21 -27 21 -56q0 -33 -30 -57 q-112 -94 -289 -94q-213 0 -336 141q-121 138 -121 307v6z" />
<glyph unicode="d" horiz-adv-x="1165" d="M92 442q0 212 135 356t334 144q92 0 171 -43t124 -117l-4 598q0 101 86 101t86 -80l-6 -500v-401q0 -8 0.5 -27.5t1 -57.5t0.5 -74q2 -176 2 -273q0 -80 -82 -80q-72 0 -78 71l-2 115q-114 -190 -330 -190q-192 0 -315 138t-123 320zM260 449q0 -130 85 -221t206 -91 q127 0 216 89t89 237q0 145 -82 236q-83 92 -205 92q-129 0 -219 -98q-90 -97 -90 -244z" />
<glyph unicode="e" horiz-adv-x="1042" d="M92 428q0 213 133 365q134 153 326 153q169 0 285 -113t116 -255q0 -84 -27 -118t-128 -36q-90 -2 -144 -2q-113 0 -188 -1t-201 -1q5 -114 85 -196q81 -83 206 -83q122 0 223 68q52 24 68 24q28 0 52 -25q24 -26 24 -54q0 -45 -56 -80q-124 -88 -329 -88 q-183 0 -312 130t-133 312zM268 539q459 7 498 10q25 5 25 20q0 102 -69 168t-163 66q-116 0 -198 -80q-81 -80 -93 -184z" />
<glyph unicode="f" horiz-adv-x="739" d="M25 844q0 82 100 82h131q0 28 1 61t1 62q0 197 92 325q91 127 301 127q72 0 121 -26q37 -18 37 -66q0 -27 -15 -48q-16 -22 -42 -22q-14 0 -68 9q-36 6 -60 6h-12q-92 -2 -143 -87t-51 -202v-139h217q88 0 88 -78q0 -76 -74 -76l-229 2v-516q0 -11 2 -97t2 -100 q0 -73 -82 -73q-84 0 -84 92v182q0 12 -0.5 41t-1 82.5t-0.5 103.5q-1 93 -1 164t1 121h-156q-75 0 -75 70z" />
<glyph unicode="g" horiz-adv-x="1155" d="M88 442q0 215 134 360q134 144 333 144q184 0 297 -160l2 86q4 66 78 66q36 0 57 -20q23 -21 23 -58q-4 -419 -4 -655l2 -193v-12q0 -209 -133 -339q-137 -134 -349 -134q-163 0 -280 57q-70 33 -70 86q0 33 23 59q22 25 53 25q14 0 26 -4q16 -5 32 -14q18 -10 32 -15 q85 -36 188 -36q138 0 227 92t89 241v144q-49 -82 -134 -128t-188 -46q-188 0 -313 135q-125 136 -125 319zM260 449q0 -136 83 -222t204 -86q129 0 218 87t89 237q0 161 -84 246q-84 86 -209 86h-5q-127 0 -210 -97q-86 -100 -86 -251z" />
<glyph unicode="h" horiz-adv-x="1122" d="M152 66q0 26 2 152q0 24 0.5 54t1 46t0.5 24l-2 1053q0 102 92 102q80 0 80 -92q0 -44 -1 -83q-2 -59 -3 -202q-3 -288 -3 -358q44 86 126 137t192 51q164 0 260 -115t96 -294v-469q0 -78 -90 -78q-38 0 -61 19q-25 20 -25 55q10 234 10 458q0 131 -61 199 q-62 70 -172 70q-113 0 -195 -88t-82 -222q0 -120 1 -226t1 -191q0 -76 -86 -76q-81 0 -81 74z" />
<glyph unicode="i" horiz-adv-x="493" d="M131 1346q7 51 42 78q36 28 81 28q55 0 85 -32t30 -83q0 -57 -35 -86q-34 -28 -92 -28q-52 0 -83 34q-29 31 -29 75q0 7 1 14zM164 74v784q2 44 25 63t57 19q46 0 66 -25q21 -25 22 -94q0 -128 -1 -234t-1 -237v-268q0 -47 -20 -70q-19 -22 -66 -22q-82 0 -82 84z" />
<glyph unicode="j" horiz-adv-x="468" d="M-176 -383q0 39 19 62q19 24 46 24q21 0 54 -10t63 -10q138 0 148 198q4 86 4 399v234q0 12 -2 178t-2 176q2 36 25 54q24 18 59 18q84 0 84 -70v-522q0 -259 -7 -532q-5 -120 -94 -205q-91 -87 -223 -88q-174 0 -174 94zM115 1335q0 53 36 85q37 32 91 32q56 0 86 -33 t30 -86q0 -58 -35 -86t-96 -28q-50 0 -81 31t-31 85z" />
<glyph unicode="k" horiz-adv-x="954" d="M150 96l4 238v899l-2 175q0 41 23 63q26 24 65 24q82 0 82 -102q0 -50 -1.5 -200t-1.5 -246q-2 -402 -2 -445l392 399q51 51 86 51q31 0 57 -26q27 -27 27 -60q0 -26 -41 -67l-301 -291l344 -379q24 -27 24 -53q0 -31 -25 -57q-26 -27 -63 -27q-35 0 -84 57l-309 367 l-107 -105v-217q-2 -52 -18 -77t-63 -25q-50 0 -68 24t-18 80z" />
<glyph unicode="l" horiz-adv-x="481" d="M162 1393q0 41 25 63q26 23 65 23q48 0 66 -27t18 -88q-12 -1008 -12 -1028q0 -41 5 -146t5 -129q0 -71 -78 -73h-10q-36 0 -57 26q-23 29 -25 99q-5 97 -5 501q0 303 3 779z" />
<glyph unicode="m" horiz-adv-x="1677" d="M150 61q0 39 2 101l6 336q0 106 -1 150t-1 103q0 43 -1 59q0 6 -0.5 13.5t-1 12.5t-0.5 9q-1 8 -1 17q0 82 88 82q69 0 75 -82l4 -86q40 88 125 132t172 44q102 0 177 -56t102 -140q44 87 127 140q84 54 192 54q173 0 253 -110q81 -111 81 -291v-195q0 -124 -6 -291 q0 -69 -86 -69q-34 0 -58 18t-24 51q8 419 8 453q0 281 -196 281q-109 0 -175 -68t-71 -199v-208q0 -110 -2 -220q0 -54 -19 -82q-18 -26 -64 -26h-7q-33 0 -54 18q-22 19 -22 54q3 225 3 366q0 70 -1 119q-4 110 -54 179t-145 69q-258 0 -258 -346l2 -394q-1 -67 -88 -67 q-35 0 -58 17t-23 52z" />
<glyph unicode="n" horiz-adv-x="1132" d="M154 831q0 56 19 82q19 27 69 27q43 0 58 -22q14 -22 19 -74l3 -90q39 92 130 144t197 52q168 0 258 -106q90 -107 90 -295v-268v-185q0 -55 -20 -78q-21 -24 -72 -24q-80 0 -80 78q0 69 4 201q3 86 3 158q0 36 -1 69q-5 296 -219 297q-71 0 -125 -23q-55 -24 -84 -57 q-31 -36 -49 -88t-24 -105q-6 -51 -6 -116v-342q0 -76 -88 -76q-80 0 -80 76q0 54 1 106t1 164v278z" />
<glyph unicode="o" horiz-adv-x="1118" d="M88 434q0 230 140 373q141 144 374 145q37 0 51 -14q183 -27 279 -165t96 -310q0 -208 -140 -344q-142 -137 -347 -137q-186 0 -319 127q-134 128 -134 325zM256 430q0 -127 86 -211t195 -84q131 0 226 92t95 242q0 139 -79 230q-80 93 -224 100q-134 -7 -217 -106 q-82 -97 -82 -263z" />
<glyph unicode="p" horiz-adv-x="1169" d="M150 -375l4 813l-2 426q1 82 84 82q68 0 75 -65l2 -121q50 87 141 138q89 50 195 50q192 0 310 -136t118 -335q0 -209 -133 -352t-332 -143q-197 0 -299 147q0 -7 0.5 -19.5t1 -36.5t0.5 -45q2 -106 2 -128q0 -68 1 -129t1 -146q0 -84 -88 -84h-4q-77 4 -77 84zM313 455 q0 -150 79 -235t206 -85q131 0 221 97q90 98 90 247q0 135 -84 227q-84 91 -202 91q-129 0 -220 -97q-90 -96 -90 -245z" />
<glyph unicode="q" horiz-adv-x="1157" d="M88 444q0 220 133 362t336 142q87 0 166 -45t129 -123l6 99q1 27 25 46q21 17 53 17t52 -19q22 -20 22 -53q-6 -296 -6 -340l-3 -487q0 -27 1.5 -102t1.5 -119q2 -194 2 -223q-1 -76 -84 -76q-88 0 -88 86l4 526q-99 -153 -312 -153q-190 0 -314 139t-124 323zM256 446 q0 -126 86 -221q85 -94 205 -94q127 0 212 87q85 86 85 241q0 152 -83 244t-196 92q-128 0 -219 -97q-90 -96 -90 -252z" />
<glyph unicode="r" horiz-adv-x="731" d="M160 102q0 65 4 238t4 283q0 7 -2 113q-2 108 -2 122q0 80 84 80q63 0 69 -68l5 -143q50 109 133 164t170 55q94 0 94 -80q0 -33 -20 -58q-19 -24 -56 -24h-39q-114 0 -195 -100t-81 -252v-362q0 -78 -86 -78q-46 0 -65 24q-17 21 -17 74v12z" />
<glyph unicode="s" horiz-adv-x="929" d="M104 109q0 86 72 86q15 0 116 -32t185 -32q87 0 146 37t59 102q0 68 -53 97q-54 29 -170 47q-64 8 -100 15q-35 7 -89 26q-51 18 -81 42t-51 64q-21 41 -21 94q0 126 110 208q112 83 254 83q166 0 271 -49q55 -28 55 -66q0 -75 -70 -75q-18 0 -96 25q-81 26 -164 26 q-82 0 -143 -41q-60 -40 -60 -104q0 -31 14 -51q13 -19 48 -31q38 -13 57 -17q23 -5 78 -12q2 0 29 -4q162 -21 250 -80q90 -60 90 -188q0 -138 -104 -216q-102 -77 -271 -77q-125 0 -244 38q-117 37 -117 85z" />
<glyph unicode="t" horiz-adv-x="731" d="M29 852q0 76 80 76h127l2 168q0 116 90 116q40 0 55 -21q14 -20 14 -71q0 -83 -4 -192l207 2q76 0 76 -74t-76 -74h-205v-405q0 -123 29 -181q28 -57 102 -57q30 0 58 9q32 10 43 10q28 0 46 -23q17 -21 17 -51q0 -51 -41 -72q-51 -24 -131 -24q-149 0 -218 85 q-69 86 -69 275q0 21 2 217q0 48 1.5 120t1.5 95h-136q-71 0 -71 72z" />
<glyph unicode="u" horiz-adv-x="1146" d="M141 420q0 107 1 211t1 209q0 96 95 96q73 0 73 -86q0 -19 -2 -193t-2 -215q0 -134 52 -220q52 -87 167 -87q161 0 227 110t66 308l2 293q0 43 25 68q24 24 63 24q84 0 84 -90v-4q0 -4 -0.5 -11.5t-0.5 -17.5t-0.5 -25.5t-0.5 -31.5l-3 -177v-47q0 -59 1 -163 q0 -160 12 -301q0 -74 -81 -74q-68 0 -80 67q-4 70 -4 81q0 15 -0.5 29t-1 21t-0.5 9q-100 -219 -328 -219q-184 0 -274 117q-91 118 -91 319z" />
<glyph unicode="v" horiz-adv-x="1009" d="M51 872q0 30 28 52q26 20 62 20q38 0 55 -23t40 -79l268 -658q140 310 278 674q30 80 86 80q35 0 61 -19q27 -20 27 -49q2 -30 -22 -86l-313 -694q-27 -55 -52 -77q-24 -21 -69 -21t-69 25q-23 25 -54 94l-299 677q-27 57 -27 84z" />
<glyph unicode="w" horiz-adv-x="1529" d="M70 874q0 31 30 52q29 20 64 20q54 0 72 -55q162 -619 184 -696q83 209 258 686q21 53 84 53q69 0 96 -74l252 -657l141 524l43 154q16 55 72 55q32 0 62 -21t30 -51q0 -18 -2 -28q-17 -47 -90 -290q-85 -283 -98 -323q-3 -10 -10.5 -32.5l-10.5 -31.5q-3 -11 -10 -32 l-10 -30t-8.5 -23.5t-6.5 -16.5q-27 -65 -98 -65q-74 0 -102 88q-18 41 -246 631l-219 -574q-33 -83 -60 -115t-79 -32q-50 0 -73 22q-23 21 -38 72q-82 266 -139 470q-65 233 -86 298q0 7 -1 12t-1 10z" />
<glyph unicode="x" horiz-adv-x="1007" d="M86 68q0 36 29 65l192 215l103 125l-41 45l-238 270q-37 44 -37 76q0 28 28 51q28 24 56 25q41 0 74 -43q195 -236 254 -315l235 288q30 39 51 55q20 15 46 15q27 0 57 -25q29 -24 29 -53q0 -15 -4 -26q-5 -13 -16 -27q-4 -5 -10 -13t-8 -11q-10 -12 -28 -30 q-10 -10 -31 -34l-215 -252l287 -334q37 -44 37 -67q0 -29 -28 -54q-27 -24 -60 -24q-42 0 -82 55l-254 315l-254 -311q-43 -59 -90 -59q-33 0 -57 24q-25 25 -25 54z" />
<glyph unicode="y" horiz-adv-x="1009" d="M35 -373q0 78 88 78q69 0 105 24q37 25 83 103q45 74 111 211l-80 166l-250 559q-33 69 -33 100q0 32 28 54q26 20 60 20q44 0 68 -41l295 -704q124 278 276 667q16 42 32 58q18 18 50 18q36 0 63 -21t27 -53q0 -28 -14 -59q-166 -397 -473 -1032q-127 -234 -297 -234 q-139 0 -139 86z" />
<glyph unicode="z" horiz-adv-x="917" d="M86 94q0 34 29 78q25 39 102 131l410 485l-97 -2q-45 0 -169 -3q-68 -2 -125 -2q-38 0 -72 1q-70 0 -70 76q0 78 109 78q18 0 174 -2t172 -2q9 0 93 2t95 2q90 -2 92 -62q4 -26 -2 -49q-23 -51 -106 -151l-404 -481l-34 -48l370 9q111 6 117 6q78 0 78 -78q0 -80 -84 -82 q-25 0 -54 1t-71 1q-11 0 -35 -0.5t-68.5 -1t-83.5 -0.5q-198 -2 -251 -2q-60 0 -87 21q-28 22 -28 75z" />
<glyph unicode="{" horiz-adv-x="600" d="M49 551q0 8 2 22q1 10 8 20l10 15q5 9 14 15q5 3 9.5 7t5.5 4q1 1 4 2.5t7.5 4.5t8.5 6q15 11 19 12q2 2 12 9.5l18 13.5q20 16 32 26q6 5 24 25q15 17 21 33t6 35q0 71 -38 200q-39 131 -40 205q0 117 90 204t223 87q29 0 49 -21q19 -20 19 -51q0 -29 -16 -51t-43 -22 q-67 0 -117 -47q-49 -46 -49 -115q0 -70 38 -198q39 -130 40 -201q0 -142 -197 -244q199 -109 199 -234q0 -73 -40 -203t-40 -208q0 -62 44 -112t113 -50q22 0 40 -21t18 -47q0 -30 -17 -50q-16 -19 -47 -19q-142 0 -224 88q-83 89 -83 207q0 69 38 201q39 134 40 204 q0 18 -12 39q-9 16 -25 32q-12 12 -39 33q-8 6 -15.5 12t-12.5 9.5t-7 5.5q-37 23 -48 31q-12 10 -28 33q-14 21 -14 53z" />
<glyph unicode="|" horiz-adv-x="524" d="M180 -319l2 673l-2 1043q2 86 78 86q46 0 64 -21q19 -22 20 -80q0 -222 -1 -515t-1 -517l2 -661q2 -95 -84 -95q-78 0 -78 87z" />
<glyph unicode="}" horiz-adv-x="600" d="M47 1425q0 29 20 51q19 21 48 21q133 0 223 -87t90 -204q-1 -74 -40 -205q-38 -129 -38 -200q0 -19 6 -35t21 -33q18 -20 24 -25q12 -10 32 -26l18 -13.5t12 -9.5q3 -3 16 -11q4 -3 10.5 -6t7.5 -4q10 -7 14 -10q3 -2 5.5 -4.5t4.5 -5t3 -3.5q7 -7 11 -12q7 -8 9 -14 q4 -9 5 -18q2 -14 2 -20q0 -32 -14 -53q-16 -23 -28 -33q-11 -8 -48 -31q-2 -2 -7 -5.5t-12.5 -9.5t-15.5 -12q-27 -21 -39 -33q-16 -16 -25 -32q-12 -21 -12 -39q1 -70 40 -204q38 -132 38 -201q0 -118 -83 -207q-82 -88 -224 -88q-31 0 -47 20q-17 22 -17 51q0 26 18 46 t40 20q69 0 113 50t44 112q0 78 -40 208q-39 127 -39 203q0 126 198 234q-196 102 -196 244q1 75 39 201q38 128 38 198q0 69 -49 115q-50 47 -117 47q-27 0 -43 22t-16 51z" />
<glyph unicode="~" horiz-adv-x="1024" d="M88 512q24 77 89 132t153 56q70 0 134 -41q63 -41 117 -81q55 -41 103 -41q69 0 109 94q23 47 75 47q31 0 52 -23q21 -22 16 -53q-57 -203 -240 -203q-70 0 -132 40q-69 45 -117 79q-55 40 -101 41q-33 0 -58 -16q-26 -17 -35 -29q-10 -13 -26 -41q-30 -47 -75 -47 q-33 0 -53 26q-19 24 -11 60z" />
<glyph unicode="&#xa1;" horiz-adv-x="468" d="M125 840q0 46 32 75t79 29q50 0 85 -30q33 -29 33 -83q0 -49 -31 -79q-33 -31 -83 -31q-49 0 -82 35q-33 34 -33 84zM147 -383l15 487l10 306q1 49 17 71q15 21 51 21q66 0 67 -72q17 -493 17 -762q1 -76 -16 -105q-18 -30 -70 -30q-44 0 -69 22q-24 21 -22 62z" />
<glyph unicode="&#xa2;" horiz-adv-x="966" d="M104 647q0 174 104 320q104 145 273 180l-2 194q0 40 20 62q19 20 46 20q76 0 76 -82v-186q112 -7 202 -63q39 -24 39 -66q0 -28 -21 -55t-53 -27q-17 0 -81 31q-67 29 -140 29q-127 0 -211 -108t-84 -230q0 -136 78 -226t203 -90q107 0 178 43q1 0 23 15q16 11 30 16 q11 4 27 4q28 0 49 -29t21 -57q0 -39 -29 -57q-90 -77 -231 -92v-148q0 -84 -76 -84q-68 0 -68 76v160q-177 33 -275 165q-99 134 -98 285z" />
<glyph unicode="&#xa3;" horiz-adv-x="1075" d="M47 66q0 70 56 120q58 52 130 56q9 0 78 -11q39 46 42 179t-19 221h-160q-63 0 -63 73q0 72 79 72h117q-12 63 -12 164q-8 214 89 336q98 123 282 123q102 0 188 -45q55 -34 39 -94q-18 -60 -84 -48q-3 0 -9 2t-15.5 4.5t-17.5 4.5q-30 7 -51 12q-19 4 -46 4 q-207 0 -207 -276q0 -102 14 -187q93 0 152 1t100 1q74 0 74 -67q0 -49 -23 -66q-22 -16 -90 -16q-40 0 -91 1t-95 1q47 -310 -29 -426q240 -76 316 -76q67 0 90 53q21 49 71 49q34 0 56 -22t20 -57q-23 -175 -227 -175q-70 0 -264 52q-193 52 -230 53q-65 0 -100 -45 q-5 -5 -9 -12q-2 -3 -6 -8l-3 -5q-3 -4 -10 -10q-8 -7 -13 -9q-8 -4 -16 -5q-14 -2 -23 -2q-35 0 -57 23q-23 25 -23 57z" />
<glyph unicode="&#xa4;" horiz-adv-x="1157" d="M76 205q0 33 24 67l146 144q-56 95 -56 190q0 154 86 266l-145 150q-43 45 -45 68q-2 8 -2 16q0 34 25 56q26 23 55 24q40 0 74 -43l143 -166q107 63 231 63q92 0 181 -57l116 135q50 58 90 58q28 0 55 -25q25 -24 25 -55q0 -12 -1 -17q-2 -9 -6 -16q-6 -10 -8 -13 q-8 -12 -10 -14l-12 -12l-14 -14l-14 -15l-113 -118q82 -121 82 -246q0 -124 -72 -230l131 -137q37 -37 37 -71q0 -32 -26 -55t-58 -23q-33 0 -82 55l-108 125q-118 -76 -234 -76q-115 0 -223 84l-106 -121q-43 -55 -84 -55q-34 0 -58 24t-24 54zM340 606q0 -102 72 -173 q71 -70 159 -70q105 -2 184 75q81 78 81 199q0 113 -68 189q-67 75 -182 73q-107 0 -176 -81q-70 -82 -70 -212z" />
<glyph unicode="&#xa5;" horiz-adv-x="1202" d="M49 1307q0 31 27 55t59 24q51 0 84 -57l383 -614l367 594q46 75 94 75q33 0 60 -24q28 -25 28 -53q0 -27 -39 -88l-403 -605h172q47 0 66 -13q20 -14 20 -48q0 -66 -78 -66h-205q0 -35 -1 -65t-1 -66h205q80 0 80 -61q0 -66 -78 -66h-207v-143q0 -90 -84 -90 q-88 0 -88 96l2 137l-221 2q-68 0 -68 70q0 57 76 57q59 0 107 -1t108 -1q2 58 2 131q-86 0 -139 1t-92 1q-67 0 -62 70q6 57 86 57q50 0 88 -1t90 -1l-407 617q-31 48 -31 76z" />
<glyph unicode="&#xa6;" horiz-adv-x="526" d="M180 727v360v336q2 35 26 55q23 19 56 19q80 0 80 -84v-326v-356q0 -86 -82 -86q-80 0 -80 82zM182 39v295q2 84 78 84q46 0 64 -21q19 -22 20 -80v-364v-266q0 -95 -82 -95q-80 0 -80 89v358z" />
<glyph unicode="&#xa7;" horiz-adv-x="1009" d="M100 639q0 148 152 256q-81 55 -86 184q0 143 119 245q117 101 262 101t250 -49q51 -24 51 -67q0 -30 -18 -51t-50 -21q-15 0 -92 25q-73 24 -145 24q-90 0 -156 -56q-67 -56 -65 -143q0 -54 36 -90q37 -37 79 -52q41 -15 110 -30q173 -38 262 -109q90 -72 96 -216 q6 -164 -123 -281q54 -74 54 -168q0 -156 -110 -255t-267 -99q-119 0 -232 43q-109 39 -110 96q0 33 19 56q20 24 48 24q22 0 60 -16q102 -51 213 -51q97 0 164 49t67 137t-60 127q-62 40 -192 70q-157 39 -245 108q-90 70 -91 209zM248 649q0 -83 58 -123t163 -67l213 -70 q76 90 72 184q-5 90 -70 136q-67 47 -182 71q-88 18 -144 45q-110 -88 -110 -176z" />
<glyph unicode="&#xa8;" horiz-adv-x="694" d="M80 1260q0 43 32 73q33 31 76 31q46 0 74 -30q29 -31 29 -72q0 -47 -31 -76t-82 -29q-40 0 -69 30q-29 31 -29 73zM406 1264q0 42 30 72t78 30q46 0 73 -30t27 -74q0 -46 -30 -73q-31 -28 -80 -28q-42 0 -70 30q-28 29 -28 73z" />
<glyph unicode="&#xa9;" horiz-adv-x="1552" d="M96 662q0 166 59 310q58 142 154 236t219 147q122 52 252 52q280 0 478 -198t198 -496q0 -311 -190 -522t-486 -211q-128 0 -250 49q-123 49 -219 135q-94 84 -155 216q-60 130 -60 282zM227 680q0 -253 165 -412t403 -159q230 0 383 179t149 419q-5 252 -160 412 q-156 161 -401 161q-236 0 -387 -171q-152 -172 -152 -429zM436 674q0 155 102 275t255 120q108 0 204 -57q33 -21 33 -51q0 -24 -14 -41q-16 -19 -39 -19q-4 0 -68 25q-49 24 -116 24q-98 0 -164 -82t-66 -184q0 -109 71 -186q70 -76 165 -76q80 0 133 31q52 28 63 28 q23 0 39 -19q17 -20 17 -40q0 -24 -25 -49q-92 -74 -227 -74q-159 0 -261 114t-102 261z" />
<glyph unicode="&#xaa;" horiz-adv-x="808" d="M59 989q0 155 97 258t237 103q130 0 209 -103q0 14 1 24t1 21q11 54 55 54q38 0 50 -21t12 -63q-2 -102 -2 -330q0 -79 4 -199q0 -55 -66 -55q-42 0 -53 47q0 2 -2 28t-2 29q-68 -110 -229 -110q-138 0 -225 93t-87 224zM193 993q0 -91 56 -148q57 -59 138 -59 q90 0 152 63q61 62 61 161q0 107 -61 167t-144 60q-88 0 -145 -69t-57 -175z" />
<glyph unicode="&#xab;" horiz-adv-x="944" d="M59 487q0 39 39 80q38 40 74 76q63 63 101 100t79 78q28 23 49 23q22 0 44 -19t22 -41q0 -23 -31 -57l-209 -240l215 -239q35 -35 35 -62q0 -20 -21 -40q-20 -19 -44 -19t-58 29l-252 243q-43 46 -43 88zM467 487q0 35 39 80l254 254q28 23 51 23q22 0 44 -19t22 -41 q0 -21 -31 -57l-209 -240l215 -239q33 -33 33 -62q0 -20 -21 -40q-20 -19 -43 -19t-57 29l-252 243q-45 45 -45 88z" />
<glyph unicode="&#xac;" horiz-adv-x="993" d="M61 553q0 76 84 76q11 0 52.5 0.5t125 1t170.5 0.5t170.5 0.5t125 1t53.5 0.5q71 0 71 -86q0 -10 2 -160q0 -34 1.5 -92.5t1.5 -79.5q0 -78 -76 -78t-76 74v272q-244 -4 -629 -4q-33 0 -55 20q-21 19 -21 54z" />
<glyph unicode="&#xad;" horiz-adv-x="722" d="M80 489q0 78 96 78h383q82 0 82 -71q0 -44 -24 -63q-23 -19 -82 -19h-375q-39 0 -60 21q-20 20 -20 54z" />
<glyph unicode="&#xae;" horiz-adv-x="1550" d="M96 664q0 165 58 310q57 142 153 235q98 95 219 145q123 51 254 51q278 0 475 -197t197 -495q0 -311 -190 -522t-486 -211q-175 0 -325 81q-153 83 -254 242q-101 160 -101 361zM225 682q0 -252 164 -413q163 -160 402 -160q229 0 384 179t150 419q-5 252 -160 412 q-156 161 -401 161q-238 0 -388 -169q-151 -171 -151 -429zM547 387l4 119q0 97 -1 188t-1 197v123q0 67 84 67q32 0 60 1t93 1q115 0 184 -63q68 -62 68 -164q0 -75 -38 -133q-38 -57 -97 -84q11 -16 82 -113q14 -19 30.5 -41t26.5 -35.5t15 -21.5q20 -16 20 -45 q0 -21 -16 -37t-41 -16q-30 0 -47 26l-182 256q-58 0 -81 1t-48 1q0 -113 2 -223q0 -57 -58 -59q-59 0 -59 55zM662 713h98q168 0 168 139q0 129 -154 129q-29 0 -55 -1t-57 -1v-266z" />
<glyph unicode="&#xaf;" horiz-adv-x="731" d="M82 1280q0 74 96 74q44 0 82 -1t86 -1q24 0 126 2q20 0 43.5 0.5t36 1t19.5 0.5q73 0 78 -66q0 -78 -102 -78q-53 0 -100 1t-107 1q-15 0 -99 -2t-85 -2q-74 0 -74 70z" />
<glyph unicode="&#xb0;" horiz-adv-x="585" d="M49 1141q0 115 69 185q69 71 179 71q103 0 172 -69q70 -70 70 -175q0 -109 -71 -178q-72 -70 -181 -70q-98 0 -168 67t-70 169zM145 1145q0 -63 42 -107q42 -43 102 -43q63 0 107 45q44 46 44 117q0 69 -42 109q-43 41 -109 41q-63 0 -103 -45q-41 -46 -41 -117z" />
<glyph unicode="&#xb1;" horiz-adv-x="993" d="M63 84q6 68 101 68q57 0 127 -1t164 -1h385q71 0 71 -72q0 -42 -23 -59t-81 -19q-158 0 -346 1t-330 1q-36 0 -53 26t-15 56zM88 725q2 66 100 66h246v299q0 37 23 55t53 18q38 0 56 -21t18 -71v-283h276q72 0 72 -73q0 -39 -20 -56t-68 -18q-58 -2 -262 -2q0 -99 1 -169 t1 -124q0 -69 -82 -65q-68 0 -68 86v274q-94 0 -162 -1t-116 -1q-39 0 -56 26q-16 25 -12 60z" />
<glyph unicode="&#xb2;" horiz-adv-x="653" d="M61 829q0 51 50 95l202 198q47 43 68 65q20 20 42 56q21 35 21 66q0 49 -37 82q-36 32 -98 32q-66 0 -123 -61q-28 -31 -63 -31q-22 0 -40 20q-17 18 -17 46q0 37 49 76q81 77 192 77q114 2 191 -64q77 -65 77 -175q0 -15 -2 -39q-1 -16 -10 -37q-12 -28 -13 -32 q-4 -13 -20 -32q-7 -8 -21 -28q-10 -14 -28 -32q-8 -8 -17.5 -18t-10.5 -11q-2 -2 -13.5 -12t-20.5 -19q-17 -16 -34 -33l-143 -137q248 4 297 4q61 0 61 -62q0 -63 -70 -63h-133h-268q-31 0 -49 18q-19 19 -19 51z" />
<glyph unicode="&#xb3;" horiz-adv-x="645" d="M59 868q0 26 18 44t40 18q19 0 59 -19q68 -37 125 -37q65 0 105 37t40 101q0 62 -44 92q-45 31 -109 31h-49q-56 0 -56 61q0 24 31 55l170 172q-61 0 -125 -1t-127 -1q-65 0 -65 60q0 61 59 61h135q66 0 121 -1t121 -1q59 0 59 -57q0 -33 -39 -72l-174 -178 q90 -2 157 -59q67 -58 67 -156q0 -121 -76 -193q-75 -71 -201 -71q-117 0 -190 45q-52 34 -52 69z" />
<glyph unicode="&#xb4;" horiz-adv-x="491" d="M72 1167q0 24 18 45q3 4 80 91q84 95 113 131q28 34 59 34t56 -25q26 -26 26 -57q0 -22 -29 -51q-86 -96 -209 -209q-26 -20 -47 -20q-23 0 -45 19t-22 42z" />
<glyph unicode="&#xb5;" horiz-adv-x="1148" d="M68 -346q0 35 37 133q38 99 42 231q7 308 7 390q0 89 -1 172t-1 208q0 83 19 115q19 33 75 33q71 0 71 -80q0 -86 -1 -173t-1 -245q0 -128 50 -217q49 -88 165 -88q133 0 211 107q78 106 78 260v344q0 96 90 96q82 0 82 -88q0 -70 -1 -173t-1 -257q0 -203 39 -254 q11 -11 23 -24q19 -20 25 -33q7 -14 7 -35q0 -35 -20 -58q-21 -24 -57 -24q-57 0 -97 43q-51 51 -63 156q-100 -205 -352 -205q-63 0 -113 31q-52 32 -70 71q0 -179 -20 -309q-27 -213 -133 -213q-90 0 -90 86z" />
<glyph unicode="&#xb6;" horiz-adv-x="1280" d="M70 1008q-1 174 106 277q109 104 297 104h137q7 0 40.5 0.5t103.5 1t145 0.5q37 0 68 1t67 1q94 0 94 -88q0 -47 -1 -80q0 -14 -0.5 -37t-1 -58.5t-0.5 -63.5q-1 -73 -1 -259q0 -206 1 -362t1 -357q0 -55 -19 -75q-19 -21 -63 -21q-45 0 -63 30t-18 91l4 1128h-279v-144 v-378v-613q0 -59 -17 -87q-17 -29 -67 -29q-80 0 -80 82q0 49 3 268q3 204 1 299h-26q-432 0 -432 369z" />
<glyph unicode="&#xb7;" horiz-adv-x="421" d="M92 487q0 49 35 82t88 33q49 0 81 -33q32 -34 32 -82q0 -53 -35 -83q-33 -29 -90 -29q-48 0 -79 33q-32 34 -32 79z" />
<glyph unicode="&#xb8;" horiz-adv-x="520" d="M82 -373q0 21 15 36t38 15q13 0 47 -15t64 -15q78 0 78 80q0 69 -93 69h-24q-29 2 -44 32q-15 31 -5 60l49 113h104l-37 -108q61 0 113 -41q51 -41 51 -121q0 -90 -57 -143q-56 -52 -145 -52q-56 0 -109 27q-45 27 -45 63z" />
<glyph unicode="&#xb9;" horiz-adv-x="518" d="M57 1348q0 28 35 57l162 115q37 24 65 24q23 0 42 -16q20 -17 20 -37v-225q0 -126 -1 -228t-1 -227q0 -53 -64 -53q-65 0 -65 61q0 30 5 262t5 299q-44 -35 -106 -77q-21 -15 -41 -15q-19 0 -38 19q-18 18 -18 41z" />
<glyph unicode="&#xba;" horiz-adv-x="800" d="M59 991q0 155 99 257t239 102q150 -1 246 -97q94 -94 94 -245q0 -143 -95 -240q-94 -96 -247 -96q-137 0 -237 95q-99 95 -99 224zM193 995q0 -89 60 -149t142 -60q90 0 151 64q60 63 60 160q0 106 -59 166q-60 61 -148 61q-87 0 -147 -68q-59 -66 -59 -174z" />
<glyph unicode="&#xbb;" horiz-adv-x="944" d="M57 186q0 29 33 62l215 239l-209 240q-30 35 -30 57q0 23 21 41q22 19 44 19q23 0 51 -23l254 -254q39 -45 39 -80q0 -43 -45 -88l-252 -243q-34 -29 -57 -29t-43 19q-21 20 -21 40zM467 186q0 27 35 62l215 239l-209 240q-31 34 -31 57q0 22 22 41t44 19q21 0 49 -23 q41 -41 79 -78t101 -100q36 -36 74 -76q39 -41 39 -80q0 -42 -43 -88l-252 -243q-34 -29 -58 -29t-44 19q-21 20 -21 40z" />
<glyph unicode="&#xbc;" horiz-adv-x="1560" d="M74 1198q0 33 35 57l161 117q34 23 66 23q22 0 42 -17q19 -16 19 -37q0 -61 -1 -111t-1 -114v-452q0 -56 -63 -56q-68 0 -68 62q0 27 5 262t5 299q-52 -45 -106 -78q-18 -12 -39 -12q-23 0 -39 17t-16 40zM285 51q0 23 18 53l737 1244q24 43 62 43q23 0 42 -17 q17 -16 17 -41t-18 -55l-316 -522l-424 -725q-21 -39 -55 -39q-23 0 -43 16t-20 43zM885 225q0 41 30 88l232 428q24 45 61 45q29 0 53 -18q23 -17 23 -41q0 -11 -10 -37l-238 -422l209 2v140q0 67 55 67q64 0 66 -53v-154l78 2q57 0 57 -53q0 -69 -53 -69h-82v-101 q0 -55 -63 -55q-60 0 -60 55q0 31 1 51t1 50h-289q-33 0 -52 23t-19 52z" />
<glyph unicode="&#xbd;" horiz-adv-x="1560" d="M72 1198q0 29 34 57l162 117q35 23 68 23q22 0 42 -17q19 -16 19 -37q0 -61 -1 -111t-1 -114v-452q0 -56 -65 -56q-28 0 -47 17t-19 45q0 27 5 262t5 299q-65 -52 -106 -78q-21 -12 -39 -12q-23 0 -40 17t-17 40zM281 51q0 23 18 53l737 1244q24 43 60 43q24 0 43 -17 q18 -16 18 -41q0 -17 -18 -55l-316 -522l-424 -725q-21 -39 -57 -39q-23 0 -42 16t-19 43zM963 66q0 49 47 94l204 200q45 41 67 64q23 24 42 56q20 33 20 65q0 50 -36 83q-37 34 -97 34q-66 0 -123 -62q-25 -31 -63 -31q-23 0 -42 19q-17 17 -17 45q0 38 49 78 q84 77 194 77q114 0 191 -65q78 -66 78 -174q0 -18 -3 -36q-1 -7 -3.5 -18t-3.5 -14q-2 -12 -12 -31q-2 -4 -5.5 -10.5t-5.5 -10.5t-3 -7q-3 -8 -21 -29q-16 -19 -20 -26q-5 -9 -26 -28l-11.5 -11.5l-9.5 -9.5l-5 -5q-1 0 -11.5 -9.5t-19.5 -19.5q-10 -9 -20.5 -19 t-10.5 -11l-143 -135q46 0 186 2q31 0 58 0.5t39.5 1t13.5 0.5q28 0 45 -18q16 -17 16 -46q0 -63 -69 -63q-31 0 -64 1t-70 1h-268q-31 0 -49 18t-18 50z" />
<glyph unicode="&#xbe;" horiz-adv-x="1622" d="M82 721q0 26 18 44q17 17 39 17q19 0 60 -18q65 -37 125 -37q63 0 103 37t40 98q0 62 -43 92q-45 31 -109 31h-49q-55 0 -55 62q0 26 31 57l170 170q-172 0 -252 -2q-66 0 -66 59q0 62 60 62h133q68 0 123 -1t118 -1q62 0 62 -56q0 -37 -39 -71l-174 -181q88 -1 155 -59 q66 -57 68 -154q0 -122 -76 -194t-200 -72q-113 0 -193 47q-49 28 -49 70zM375 51q0 23 18 53l737 1244q24 43 60 43q24 0 43 -17q18 -16 18 -41q0 -17 -18 -55l-315 -522l-424 -725q-21 -39 -58 -39q-23 0 -42 16t-19 43zM948 225q0 40 31 88l231 428q24 45 62 45 q28 0 52 -18t24 -41q0 -9 -11 -37l-237 -422l209 2v140q0 67 55 67q64 0 66 -53v-154l77 2q58 0 58 -53q0 -69 -54 -69h-81v-101q0 -55 -64 -55q-59 0 -59 55q0 31 1 51t1 50h-89h-114h-86q-33 0 -52 23q-20 25 -20 52z" />
<glyph unicode="&#xbf;" horiz-adv-x="991" d="M74 -90q0 54 21 104q20 47 43 80q21 30 74 71q51 40 73 52q19 11 80 49q95 61 100 140q1 17 -6 35q-8 19 -8 36q0 33 22 51q24 19 57 19q49 0 76 -42t27 -108q0 -141 -168 -237q-68 -40 -84 -50q-27 -18 -67 -52q-39 -33 -57 -69q-17 -34 -17 -79q0 -99 76 -163t186 -64 q118 0 225 84q61 45 90 45q27 0 52 -25q24 -24 24 -53q0 -40 -45 -74q-164 -131 -350 -131q-172 0 -298 105t-126 276zM408 834q0 56 34 84t86 28q55 0 88 -30t33 -80q0 -49 -35 -82q-34 -33 -88 -33q-55 0 -87 32q-31 31 -31 81z" />
<glyph unicode="&#xc0;" d="M51 72q0 26 31 100l215 504q50 113 260 653q27 66 98 66q74 0 103 -68q25 -57 138 -350q27 -72 58 -153t50 -131t30 -77q0 -2 2 -5t5 -9t5 -12q3 -8 7.5 -18t5.5 -13l180 -438q16 -39 16 -60q0 -25 -27 -47q-26 -22 -65 -22q-37 0 -55 15t-35 56q-123 315 -123 316 q-84 2 -389 2h-209q-4 -9 -56 -145q-53 -139 -60 -154q-30 -67 -52 -80q-18 -8 -37 -8q-96 0 -96 78zM403 522q228 -4 494 2q-1 4 -11.5 32t-25 68t-30.5 84q-77 214 -103 284q-54 145 -72 190q-84 -242 -252 -660zM467 1788q0 26 26 49t52 23q39 0 63 -35l180 -223 q19 -22 19 -46q0 -19 -20 -39t-42 -20q-20 0 -47 21q-139 136 -204 211q-27 33 -27 59z" />
<glyph unicode="&#xc1;" d="M51 72q0 26 31 100l215 504q50 113 260 653q27 66 98 66q74 0 103 -68q25 -57 138 -350q27 -72 58 -153t50 -131t30 -77q0 -2 2 -5t5 -9t5 -12q3 -8 7.5 -18t5.5 -13l180 -438q16 -39 16 -60q0 -25 -27 -47q-26 -22 -65 -22q-37 0 -55 15t-35 56q-123 315 -123 316 q-84 2 -389 2h-209q-4 -9 -56 -145q-53 -139 -60 -154q-30 -67 -52 -80q-18 -8 -37 -8q-96 0 -96 78zM403 522q228 -4 494 2q-1 4 -11.5 32t-25 68t-30.5 84q-77 214 -103 284q-54 145 -72 190q-84 -242 -252 -660zM514 1556q0 25 18 46q3 4 13 15t29.5 32.5t37.5 42.5 q84 95 113 131q29 35 59 35q31 0 57 -26q25 -25 25 -56q0 -24 -28 -52q-81 -91 -209 -208q-27 -21 -47 -21q-23 0 -45 19q-23 20 -23 42z" />
<glyph unicode="&#xc2;" d="M51 72q0 26 31 100l215 504q50 113 260 653q27 66 98 66q74 0 103 -68q25 -57 138 -350q27 -72 58 -153t50 -131t30 -77q0 -2 2 -5t5 -9t5 -12q3 -8 7.5 -18t5.5 -13l180 -438q16 -39 16 -60q0 -25 -27 -47q-26 -22 -65 -22q-37 0 -55 15t-35 56q-123 315 -123 316 q-84 2 -389 2h-209q-4 -9 -56 -145q-53 -139 -60 -154q-30 -67 -52 -80q-18 -8 -37 -8q-96 0 -96 78zM383 1542q0 23 23 51l176 197q30 37 77 37q40 0 70 -33l178 -201q27 -35 27 -53q0 -17 -19 -38q-18 -19 -41 -19q-12 0 -49 24l-168 172q-150 -158 -170 -176 q-21 -18 -47 -18q-18 0 -38 18q-19 18 -19 39zM403 522q228 -4 494 2q-1 4 -11.5 32t-25 68t-30.5 84q-77 214 -103 284q-54 145 -72 190q-84 -242 -252 -660z" />
<glyph unicode="&#xc3;" d="M51 72q0 26 31 100l215 504q50 113 260 653q27 66 98 66q74 0 103 -68q25 -57 138 -350q27 -72 58 -153t50 -131t30 -77q0 -2 2 -5t5 -9t5 -12q3 -8 7.5 -18t5.5 -13l180 -438q16 -39 16 -60q0 -25 -27 -47q-26 -22 -65 -22q-37 0 -55 15t-35 56q-123 315 -123 316 q-84 2 -389 2h-209q-4 -9 -56 -145q-53 -139 -60 -154q-30 -67 -52 -80q-18 -8 -37 -8q-96 0 -96 78zM348 1612q4 75 54 122q49 46 128 46q54 0 99 -31q34 -23 79 -61q38 -32 74 -33q55 0 60 80q2 23 21 36t40 13q23 0 42 -17q18 -17 18 -41q0 -95 -49 -144 q-48 -48 -128 -48q-42 1 -81 20q-37 18 -59 40q-24 24 -51 40q-33 20 -58 21q-61 0 -66 -68q-8 -47 -63 -47q-29 0 -46 20q-16 18 -14 52zM403 522q228 -4 494 2q-1 4 -11.5 32t-25 68t-30.5 84q-77 214 -103 284q-54 145 -72 190q-84 -242 -252 -660z" />
<glyph unicode="&#xc4;" d="M51 72q0 26 31 100l215 504q50 113 260 653q27 66 98 66q74 0 103 -68q25 -57 138 -350q27 -72 58 -153t50 -131t30 -77q0 -2 2 -5t5 -9t5 -12q3 -8 7.5 -18t5.5 -13l180 -438q16 -39 16 -60q0 -25 -27 -47q-26 -22 -65 -22q-37 0 -55 15t-35 56q-123 315 -123 316 q-84 2 -389 2h-209q-4 -9 -56 -145q-53 -139 -60 -154q-30 -67 -52 -80q-18 -8 -37 -8q-96 0 -96 78zM387 1649q0 43 32 73q33 31 77 31t73 -30q29 -31 29 -72q0 -47 -31 -76t-82 -29q-41 0 -69 30q-29 31 -29 73zM403 522q228 -4 494 2q-1 4 -11.5 32t-25 68t-30.5 84 q-77 214 -103 284q-54 145 -72 190q-84 -242 -252 -660zM713 1653q0 42 30 72t78 30q46 0 73 -30q28 -31 28 -74q0 -45 -31 -73t-80 -28q-41 0 -70 30q-28 29 -28 73z" />
<glyph unicode="&#xc5;" d="M51 72q0 26 31 100l215 504q72 163 254 635q4 10 10 20q-53 21 -92 73q-37 49 -37 116q0 95 71 157t156 62q89 0 156 -59q66 -58 66 -148q0 -67 -35 -122t-92 -79l10 -20q39 -92 132 -338q98 -257 138 -357q0 -2 2 -5t5 -9t5 -12q3 -8 7.5 -18t5.5 -13l180 -438 q16 -39 16 -60q0 -28 -26 -48q-27 -21 -64 -21q-40 0 -57 16q-18 17 -35 56q-35 89 -66.5 169.5t-44 112.5t-12.5 33q-84 2 -389 2h-209q-4 -9 -56 -145q-53 -139 -60 -154q-30 -67 -52 -80q-18 -8 -37 -8q-96 0 -96 78zM403 522q228 -4 494 2q-1 4 -11.5 32t-25 68 t-30.5 84q-77 214 -103 284q-54 145 -72 190q-84 -242 -252 -660zM537 1526q0 -56 33 -88q34 -33 87 -33t86 37t31 88q0 50 -34 81q-35 32 -85 32q-49 0 -84 -32q-34 -31 -34 -85z" />
<glyph unicode="&#xc6;" horiz-adv-x="1855" d="M37 82q0 36 47 94q168 234 411 603q247 376 351 521q63 87 149 87q69 0 158 1q47 1 147 1.5t152 0.5q111 1 236 1q92 0 92 -74q0 -69 -60 -76q-299 -4 -594 -4q0 -72 -1 -126t-1 -118l-2 -192v-49h103q82 0 165 1t214 1q86 0 86 -72q0 -74 -84 -74q-125 0 -259 -1 t-227 -1v-141q0 -87 -1 -158t-1 -157q95 0 580 8q84 0 84 -76q0 -81 -92 -86h-516q-144 0 -183 20q-42 22 -43 105l2 252l-520 4q-39 -53 -207 -314q-46 -69 -100 -69q-36 0 -62 25q-26 24 -24 63zM510 518l444 2q0 107 2 191v164q0 85 -1 153q-1 80 1 156z" />
<glyph unicode="&#xc7;" horiz-adv-x="1245" d="M104 668q1 325 204 531q201 204 462 202q166 0 299 -60q90 -41 90 -94q0 -38 -19 -61q-20 -25 -57 -25q-23 1 -79 27q-123 57 -252 57q-188 0 -332 -162q-145 -163 -146 -405q0 -220 139 -377q138 -156 347 -158q154 0 278 82q4 3 16 9q3 1 5.5 3t4.5 3.5t3 2.5q5 3 12 6 q3 1 17 4q5 1 18 1q29 0 47 -27q19 -29 19 -59q0 -64 -121 -119q-119 -54 -264 -65l-29 -90q59 0 111 -41q51 -40 51 -121q0 -90 -57 -143q-56 -52 -144 -52q-54 0 -111 27q-45 27 -45 63q0 21 17 36q16 15 39 15q11 0 46 -15q34 -15 62 -15q78 0 78 80q0 69 -90 69h-25 q-30 1 -45 32q-15 29 -4 60l41 97q-245 18 -416 203q-172 185 -170 479z" />
<glyph unicode="&#xc8;" horiz-adv-x="1112" d="M180 119q0 44 2 82l2 28q0 44 1 77q1 17 1.5 57t0.5 60q1 24 1.5 79.5t0.5 83.5q1 64 1 198q0 145 1 260q2 230 2 261q0 49 32 66q33 18 101 18h98q53 0 275 2q42 0 94.5 0.5t81 1t43.5 0.5q93 0 98 -74q0 -69 -55 -76q-82 -2 -494 -2h-107q-2 -114 -2 -248l-2 -198v-39 h103q221 0 356 6q58 0 80 -14q25 -16 25 -62q-5 -74 -93 -74h-473v-147q0 -16 -2 -158t-2 -157q298 0 541 4q22 0 37 1t35 1q71 0 71 -74q0 -42 -22 -63q-23 -22 -82 -23h-537q-137 0 -173 20q-39 22 -40 103zM430 1788q0 26 26 49t52 23q39 0 63 -35l181 -223 q18 -21 18 -46q0 -20 -19 -39q-20 -20 -42 -20q-20 0 -47 21q-146 143 -205 211q-27 33 -27 59z" />
<glyph unicode="&#xc9;" horiz-adv-x="1112" d="M180 119q0 44 2 82l2 28q0 44 1 77q1 17 1.5 57t0.5 60q1 24 1.5 79.5t0.5 83.5q1 64 1 198q0 145 1 260q2 230 2 261q0 49 32 66q33 18 101 18h98q53 0 275 2q42 0 94.5 0.5t81 1t43.5 0.5q93 0 98 -74q0 -69 -55 -76q-82 -2 -494 -2h-107q-2 -114 -2 -248l-2 -198v-39 h103q221 0 356 6q58 0 80 -14q25 -16 25 -62q-5 -74 -93 -74h-473v-147q0 -16 -2 -158t-2 -157q298 0 541 4q22 0 37 1t35 1q71 0 71 -74q0 -42 -22 -63q-23 -22 -82 -23h-537q-137 0 -173 20q-39 22 -40 103zM477 1556q0 24 19 46q4 5 79 90q84 95 113 131q29 35 60 35 q30 0 56 -26q25 -25 25 -56q0 -24 -28 -52q-81 -91 -209 -208q-27 -21 -47 -21q-23 0 -45 19q-23 20 -23 42z" />
<glyph unicode="&#xca;" horiz-adv-x="1112" d="M180 119q0 44 2 82l2 28q0 44 1 77q1 17 1.5 57t0.5 60q1 24 1.5 79.5t0.5 83.5q1 64 1 198q0 145 1 260q2 230 2 261q0 49 32 66q33 18 101 18h98q53 0 275 2q42 0 94.5 0.5t81 1t43.5 0.5q93 0 98 -74q0 -69 -55 -76q-82 -2 -494 -2h-107q-2 -114 -2 -248l-2 -198v-39 h103q221 0 356 6q58 0 80 -14q25 -16 25 -62q-5 -74 -93 -74h-473v-147q0 -16 -2 -158t-2 -157q298 0 541 4q22 0 37 1t35 1q71 0 71 -74q0 -42 -22 -63q-23 -22 -82 -23h-537q-137 0 -173 20q-39 22 -40 103zM346 1542q0 23 23 51l176 197q30 37 78 37q39 0 69 -33 l178 -201q27 -35 27 -53t-18 -38q-18 -19 -41 -19q-13 0 -50 24l-167 172q-150 -158 -170 -176q-21 -18 -48 -18q-17 0 -37 18t-20 39z" />
<glyph unicode="&#xcb;" horiz-adv-x="1112" d="M180 119q0 44 2 82l2 28q0 44 1 77q1 17 1.5 57t0.5 60q1 24 1.5 79.5t0.5 83.5q1 64 1 198q0 145 1 260q2 230 2 261q0 49 32 66q33 18 101 18h98q53 0 275 2q42 0 94.5 0.5t81 1t43.5 0.5q93 0 98 -74q0 -69 -55 -76q-82 -2 -494 -2h-107q-2 -114 -2 -248l-2 -198v-39 h103q221 0 356 6q58 0 80 -14q25 -16 25 -62q-5 -74 -93 -74h-473v-147q0 -16 -2 -158t-2 -157q298 0 541 4q22 0 37 1t35 1q71 0 71 -74q0 -42 -22 -63q-23 -22 -82 -23h-537q-137 0 -173 20q-39 22 -40 103zM350 1649q0 43 32 73q33 31 77 31q45 0 73 -30q29 -31 29 -72 q0 -47 -31 -76t-81 -29q-41 0 -70 30q-29 31 -29 73zM676 1653q0 41 31 72q30 30 77 30q46 0 73 -30q28 -31 28 -74q0 -45 -31 -73t-80 -28q-40 0 -69 30q-29 31 -29 73z" />
<glyph unicode="&#xcc;" horiz-adv-x="561" d="M90 1788q0 26 26 49t52 23q39 0 63 -35l181 -223q18 -21 18 -46q0 -20 -19 -39q-20 -20 -42 -20q-20 0 -47 21q-146 143 -205 211q-27 33 -27 59zM195 72q0 48 1 88t1 92l2 573q0 6 -2 218t-2 268q0 86 90 86q37 0 59 -21q23 -21 23 -57q0 -44 -2 -510v-328l2 -393 q0 -96 -86 -96q-41 0 -64 20q-24 21 -22 60z" />
<glyph unicode="&#xcd;" horiz-adv-x="561" d="M137 1556q0 24 19 46q3 4 13 15t29.5 32.5t37.5 42.5q71 81 112 131q29 35 60 35q30 0 56 -26q25 -25 25 -56q0 -24 -28 -52q-81 -91 -209 -208q-27 -21 -47 -21q-23 0 -45 19q-23 20 -23 42zM195 72q0 48 1 88t1 92l2 573q0 6 -2 218t-2 268q0 86 90 86q37 0 59 -21 q23 -21 23 -57q0 -44 -2 -510v-328l2 -393q0 -96 -86 -96q-41 0 -64 20q-24 21 -22 60z" />
<glyph unicode="&#xce;" horiz-adv-x="561" d="M6 1542q0 23 23 51l176 197q30 37 78 37q39 0 69 -33l178 -201q27 -35 27 -53t-18 -38q-18 -19 -41 -19q-12 0 -49 24l-168 172q-150 -158 -170 -176q-21 -18 -48 -18q-17 0 -37 18t-20 39zM195 72q0 48 1 88t1 92l2 573q0 6 -2 218t-2 268q0 86 90 86q37 0 59 -21 q23 -21 23 -57q0 -44 -2 -510v-328l2 -393q0 -96 -86 -96q-41 0 -64 20q-24 21 -22 60z" />
<glyph unicode="&#xcf;" horiz-adv-x="561" d="M10 1649q0 43 32 73q33 31 77 31q45 0 74 -30q28 -29 28 -72q0 -47 -31 -76t-81 -29q-41 0 -70 30q-29 31 -29 73zM195 72q0 48 1 88t1 92l2 573q0 6 -2 218t-2 268q0 86 90 86q37 0 59 -21q23 -21 23 -57q0 -44 -2 -510v-328l2 -393q0 -96 -86 -96q-41 0 -64 20 q-24 21 -22 60zM336 1653q0 41 31 72q30 30 77 30q46 0 73 -30q28 -31 28 -74q0 -45 -31 -73t-80 -28q-40 0 -69 30q-29 31 -29 73z" />
<glyph unicode="&#xd0;" horiz-adv-x="1390" d="M20 670q0 73 89 73h69l-6 531q0 119 166 119q59 0 140 1t136 1q298 -15 493 -186q196 -172 196 -470q0 -733 -779 -739q-172 0 -252 4q-98 6 -98 121l2 471h-80q-76 0 -76 74zM342 203q0 -33 30 -39t140 -6q621 0 621 559q0 174 -82 295q-83 122 -208 174 q-127 53 -286 53q-141 0 -215 -6v-490h186q80 0 80 -71q0 -42 -20 -59t-72 -17h-174v-393z" />
<glyph unicode="&#xd1;" horiz-adv-x="1447" d="M172 76q0 35 0.5 103.5t1 197t0.5 237.5q0 142 -1 238t-1 238v217q0 38 30 62t74 24q27 0 52 -17q27 -18 36 -30q3 -4 8.5 -11.5t13.5 -19t15 -21.5l502 -710l217 -305q-6 178 -6 481l-4 506q0 62 16 93q17 32 70 32q50 0 65 -29q15 -28 15 -92v-680q4 -108 4 -504 q0 -41 -28 -66q-27 -24 -74 -24q-39 0 -59 19q-21 19 -60 75l-725 1034q-2 -154 2 -527q4 -368 4 -495q0 -58 -18 -83t-62 -25q-88 0 -88 82zM416 1612q4 75 54 122q49 46 128 46q53 0 98 -31q34 -23 79 -61q38 -32 75 -33q54 0 59 80q1 21 22 35q20 14 40 14q23 0 42 -17 q17 -16 17 -41q0 -96 -48 -144t-128 -48q-43 1 -82 20q-35 17 -58 40q-24 24 -51 40q-33 20 -59 21q-60 0 -65 -68q-8 -47 -64 -47q-28 0 -45 20q-16 18 -14 52z" />
<glyph unicode="&#xd2;" horiz-adv-x="1527" d="M104 659q0 165 58 312q56 141 152 237q94 94 215 147q118 52 245 50q272 0 466 -197t194 -495q0 -307 -190 -520q-189 -211 -478 -211q-172 0 -320 80t-245 239t-97 358zM272 680q0 -236 148 -387q147 -150 360 -150q203 0 345 169q143 170 141 395q-1 234 -156 387 q-152 151 -358 151q-192 0 -336 -162t-144 -403zM575 1788q0 26 26 49t52 23q40 0 64 -35l180 -223q18 -21 18 -46q0 -20 -19 -39q-20 -20 -42 -20q-20 0 -47 21q-146 143 -205 211q-27 33 -27 59z" />
<glyph unicode="&#xd3;" horiz-adv-x="1527" d="M104 659q0 165 58 312q56 141 152 237q94 94 215 147q118 52 245 50q272 0 466 -197t194 -495q0 -307 -190 -520q-189 -211 -478 -211q-172 0 -320 80t-245 239t-97 358zM272 680q0 -236 148 -387q147 -150 360 -150q203 0 345 169q143 170 141 395q-1 234 -156 387 q-152 151 -358 151q-192 0 -336 -162t-144 -403zM623 1556q0 25 18 46q3 4 13 15t29.5 32.5t37.5 42.5q84 95 113 131q29 35 59 35t56 -26t26 -56q0 -23 -29 -52q-81 -91 -209 -208q-27 -21 -47 -21q-23 0 -45 19t-22 42z" />
<glyph unicode="&#xd4;" horiz-adv-x="1527" d="M104 659q0 165 58 312q56 141 152 237q94 94 215 147q118 52 245 50q272 0 466 -197t194 -495q0 -307 -190 -520q-189 -211 -478 -211q-172 0 -320 80t-245 239t-97 358zM272 680q0 -236 148 -387q147 -150 360 -150q203 0 345 169q143 170 141 395q-1 234 -156 387 q-152 151 -358 151q-192 0 -336 -162t-144 -403zM492 1542q0 25 22 51l176 197q30 37 78 37q40 0 70 -33l178 -201q26 -33 26 -53q0 -18 -18 -38q-18 -19 -41 -19q-11 0 -49 24l-168 172q-150 -158 -170 -176q-21 -18 -47 -18q-19 0 -38 18t-19 39z" />
<glyph unicode="&#xd5;" horiz-adv-x="1527" d="M104 659q0 165 58 312q56 141 152 237q94 94 215 147q118 52 245 50q272 0 466 -197t194 -495q0 -307 -190 -520q-189 -211 -478 -211q-172 0 -320 80t-245 239t-97 358zM272 680q0 -236 148 -387q147 -150 360 -150q203 0 345 169q143 170 141 395q-1 234 -156 387 q-152 151 -358 151q-192 0 -336 -162t-144 -403zM455 1612q4 75 54 122q49 46 128 46q53 0 98 -31q34 -23 79 -61q38 -32 75 -33q54 0 59 80q1 21 22 35q20 14 40 14q23 0 42 -17q17 -16 17 -41q0 -96 -48 -144t-128 -48q-43 1 -82 20q-35 17 -58 40q-22 22 -52 40 q-33 20 -58 21q-60 0 -65 -68q-8 -47 -64 -47q-28 0 -45 20q-16 18 -14 52z" />
<glyph unicode="&#xd6;" horiz-adv-x="1527" d="M104 659q0 165 58 312q56 141 152 237q94 94 215 147q118 52 245 50q272 0 466 -197t194 -495q0 -307 -190 -520q-189 -211 -478 -211q-172 0 -320 80t-245 239t-97 358zM272 680q0 -236 148 -387q147 -150 360 -150q203 0 345 169q143 170 141 395q-1 234 -156 387 q-152 151 -358 151q-192 0 -336 -162t-144 -403zM496 1649q0 43 31 73q33 31 77 31q46 0 74 -30q29 -31 29 -72q0 -47 -31 -76t-82 -29q-42 0 -70 30q-28 29 -28 73zM821 1653q0 41 31 72q30 30 78 30q45 0 72 -30q28 -31 28 -74q0 -45 -31 -73t-79 -28q-42 0 -70 30 q-29 31 -29 73z" />
<glyph unicode="&#xd7;" horiz-adv-x="993" d="M106 215q0 27 23 55l182 187l90 98l-258 266q-28 37 -28 66q0 25 24 47t51 24q34 0 68 -38l242 -269l215 246q51 61 88 61q27 0 52 -22q26 -23 26 -49q0 -11 -3 -21q-1 -5 -7 -16q-5 -10 -13 -19l-15 -18q-1 -1 -3 -3.5t-4.5 -5t-7 -6.5t-7.5 -7l-22 -23l-203 -221 l258 -268q33 -28 33 -62q0 -24 -25 -49t-53 -25q-31 0 -76 50l-235 258l-232 -261l-9 -9l-8 -8l-7 -7q-4 -4 -8 -6q-2 -1 -7 -6t-7 -6q-4 -2 -7 -3q-1 -1 -3.5 -2t-4.5 -1q-1 0 -4 -1t-5 -1q-3 -1 -10 -1q-27 0 -54 25q-26 24 -26 51z" />
<glyph unicode="&#xd8;" horiz-adv-x="1527" d="M104 659q0 165 58 312q56 141 152 237q94 94 215 147q118 52 245 50q162 0 313 -82l56 80q19 31 49 31q23 0 41 -18t18 -40q0 -19 -10 -35l-55 -84q116 -96 181 -235q67 -143 67 -309q0 -307 -190 -520q-189 -211 -478 -211q-188 0 -346 96l-68 -103q-22 -32 -47 -32 q-23 0 -43 17t-20 40q0 17 16 43l68 104q-222 198 -222 512zM272 680q0 -234 150 -387l575 887q-112 65 -245 65q-192 0 -336 -162t-144 -403zM510 219q122 -76 270 -76q203 0 345 169q143 170 141 395q-1 247 -176 403z" />
<glyph unicode="&#xd9;" horiz-adv-x="1396" d="M168 563q0 238 1 410t1 317q0 94 80 94q46 0 67 -21t21 -67q-2 -136 -2 -733q0 -211 96 -313q97 -103 273 -103q158 0 260 117q103 118 104 299q2 122 -1 384q-3 282 -3 362q0 82 86 82q84 0 84 -101l2 -672q2 -299 -143 -464q-145 -166 -408 -166q-242 0 -380 150 t-138 425zM518 1788q0 26 26 49t52 23q39 0 63 -35l181 -223q18 -21 18 -46q0 -20 -19 -39q-20 -20 -42 -20q-20 0 -47 21q-146 143 -205 211q-27 33 -27 59z" />
<glyph unicode="&#xda;" horiz-adv-x="1396" d="M168 563q0 238 1 410t1 317q0 94 80 94q46 0 67 -21t21 -67q-2 -136 -2 -733q0 -211 96 -313q97 -103 273 -103q158 0 260 117q103 118 104 299q2 122 -1 384q-3 282 -3 362q0 82 86 82q84 0 84 -101l2 -672q2 -299 -143 -464q-145 -166 -408 -166q-242 0 -380 150 t-138 425zM565 1556q0 24 19 46q3 4 13 15t29.5 32.5t37.5 42.5q71 81 112 131q29 35 60 35q30 0 56 -26t26 -56q0 -23 -29 -52q-81 -91 -209 -208q-27 -21 -47 -21q-23 0 -45 19q-23 20 -23 42z" />
<glyph unicode="&#xdb;" horiz-adv-x="1396" d="M168 563q0 238 1 410t1 317q0 94 80 94q46 0 67 -21t21 -67q-2 -136 -2 -733q0 -211 96 -313q97 -103 273 -103q158 0 260 117q103 118 104 299q2 122 -1 384q-3 282 -3 362q0 82 86 82q84 0 84 -101l2 -672q2 -299 -143 -464q-145 -166 -408 -166q-242 0 -380 150 t-138 425zM434 1542q0 23 23 51l176 197q30 37 78 37q39 0 69 -33l178 -201q27 -35 27 -53t-18 -38q-18 -19 -41 -19q-12 0 -49 24l-168 172q-150 -158 -170 -176q-21 -18 -47 -18q-18 0 -38 18t-20 39z" />
<glyph unicode="&#xdc;" horiz-adv-x="1396" d="M168 563q0 238 1 410t1 317q0 94 80 94q46 0 67 -21t21 -67q-2 -136 -2 -733q0 -211 96 -313q97 -103 273 -103q158 0 260 117q103 118 104 299q2 122 -1 384q-3 282 -3 362q0 82 86 82q84 0 84 -101l2 -672q2 -299 -143 -464q-145 -166 -408 -166q-242 0 -380 150 t-138 425zM438 1649q0 43 32 73q33 31 77 31q45 0 74 -30q28 -29 28 -72q0 -47 -31 -76t-81 -29q-41 0 -70 30q-29 31 -29 73zM764 1653q0 41 31 72q30 30 77 30q46 0 73 -30q28 -31 28 -74q0 -45 -31 -73t-80 -28q-40 0 -69 30q-29 31 -29 73z" />
<glyph unicode="&#xdd;" horiz-adv-x="1226" d="M51 1313q0 31 28 56q27 24 62 24q39 0 84 -68q388 -620 393 -625q9 13 42 68q30 50 126 204q35 56 112.5 179.5t115.5 183.5q39 60 80 60q34 0 60 -23t26 -53q0 -26 -29 -70l-453 -694q0 -139 -1 -243t-1 -242q0 -36 -24 -55q-23 -19 -62 -19q-38 0 -61 22q-25 23 -25 62 t1 71t1 72q0 102 1 170t1 156l-10 24l-436 664q-31 51 -31 76zM473 1556q0 24 19 46q4 5 79 90q84 95 113 131q29 35 59 35q31 0 57 -26q25 -25 25 -56q0 -24 -28 -52q-81 -91 -209 -208q-27 -21 -47 -21q-23 0 -45 19q-23 20 -23 42z" />
<glyph unicode="&#xde;" horiz-adv-x="1161" d="M180 92q0 12 2 230t2 239l-2 684q1 82 19 119q17 35 69 35t70 -29q18 -28 16 -90v-160l244 4q235 2 373 -101q139 -103 133 -323q-4 -139 -96 -247q-92 -109 -242 -142q-65 -16 -385 -16h-33v-203q0 -96 -84 -100q-48 -2 -66 24q-20 28 -20 76zM354 444q230 0 338 9 q240 27 244 256q2 153 -94 210q-94 56 -271 56q-143 0 -217 -2v-529z" />
<glyph unicode="&#xdf;" horiz-adv-x="1163" d="M147 104q0 52 1 102q2 76 3 240q1 111 1 416q0 256 114 391q115 136 309 136q163 0 265 -91q100 -90 100 -243q0 -74 -54 -143q-49 -63 -109 -121q-54 -53 -54 -89q0 -30 11 -49q12 -21 42 -39q29 -17 44 -24q24 -11 61 -25q97 -40 156 -100q59 -61 59 -172 q0 -140 -90 -223q-89 -82 -244 -82q-117 0 -198 27t-81 75q0 36 18 60t52 24q18 0 87 -18q73 -19 134 -19q73 0 120 38q46 37 46 108t-45 110q-47 40 -131 70q-92 33 -144 82q-53 50 -53 145q0 54 33 104q34 50 73 84t72 81q33 48 33 96q0 180 -221 180q-112 0 -177 -86 t-65 -252q0 -21 0.5 -69t1 -138.5t0.5 -173.5q1 -308 0 -407q0 -65 -19 -91t-71 -26q-44 -2 -61 26q-19 30 -19 86z" />
<glyph unicode="&#xe0;" horiz-adv-x="1163" d="M92 436q0 217 134 362q134 144 333 144q197 0 303 -160q0 54 6 84q11 70 74 70q47 0 64 -28q16 -26 16 -85l-2 -159l-4 -310q0 -140 10 -291q0 -69 -88 -69q-45 0 -58 37q-14 39 -20 135q-102 -178 -332 -178q-192 0 -314 131t-122 317zM264 442q0 -132 83 -220 q83 -87 202 -87q135 0 223 91t88 237q0 154 -89 243t-210 89q-126 0 -212 -101q-85 -100 -85 -252zM377 1399q0 27 25 49t53 22q39 0 63 -34l180 -224q19 -24 19 -45q0 -20 -20 -40q-19 -19 -42 -19q-21 0 -47 20q-146 143 -205 211q-26 32 -26 60z" />
<glyph unicode="&#xe1;" horiz-adv-x="1163" d="M92 436q0 217 134 362q134 144 333 144q197 0 303 -160q0 54 6 84q11 70 74 70q47 0 64 -28q16 -26 16 -85l-2 -159l-4 -310q0 -140 10 -291q0 -69 -88 -69q-45 0 -58 37q-14 39 -20 135q-102 -178 -332 -178q-192 0 -314 131t-122 317zM264 442q0 -132 83 -220 q83 -87 202 -87q135 0 223 91t88 237q0 154 -89 243t-210 89q-126 0 -212 -101q-85 -100 -85 -252zM424 1167q0 24 18 45q3 4 80 91q84 95 113 131q28 34 59 34q32 0 57 -25t25 -57q0 -23 -28 -51q-86 -96 -209 -209q-26 -20 -47 -20q-24 0 -46 19t-22 42z" />
<glyph unicode="&#xe2;" horiz-adv-x="1163" d="M92 436q0 217 134 362q134 144 333 144q197 0 303 -160q0 54 6 84q11 70 74 70q47 0 64 -28q16 -26 16 -85l-2 -159l-4 -310q0 -140 10 -291q0 -69 -88 -69q-45 0 -58 37q-14 39 -20 135q-102 -178 -332 -178q-192 0 -314 131t-122 317zM264 442q0 -132 83 -220 q83 -87 202 -87q135 0 223 91t88 237q0 154 -89 243t-210 89q-126 0 -212 -101q-85 -100 -85 -252zM293 1153q0 25 22 51l177 197q30 37 77 37q40 0 70 -33l178 -201q27 -34 27 -53q0 -17 -19 -38q-18 -19 -41 -19q-12 0 -49 24l-168 172q-150 -158 -170 -176 q-21 -18 -47 -18q-18 0 -38 18q-19 18 -19 39z" />
<glyph unicode="&#xe3;" horiz-adv-x="1163" d="M92 436q0 217 134 362q134 144 333 144q197 0 303 -160q0 54 6 84q11 70 74 70q47 0 64 -28q16 -26 16 -85l-2 -159l-4 -310q0 -140 10 -291q0 -69 -88 -69q-45 0 -58 37q-14 39 -20 135q-102 -178 -332 -178q-192 0 -314 131t-122 317zM258 1223q4 75 54 122 q49 46 128 46q54 0 99 -31q21 -14 78 -62q37 -31 75 -32q55 0 60 80q1 21 21 35t40 14q23 0 42 -17q17 -16 17 -41q0 -96 -48 -144t-128 -48q-43 1 -82 20q-35 17 -58 40q-24 23 -51 40q-33 20 -59 21q-60 0 -65 -68q-8 -47 -64 -47q-29 0 -45 19q-16 18 -14 53zM264 442 q0 -132 83 -220q83 -87 202 -87q135 0 223 91t88 237q0 154 -89 243t-210 89q-126 0 -212 -101q-85 -100 -85 -252z" />
<glyph unicode="&#xe4;" horiz-adv-x="1163" d="M92 436q0 217 134 362q134 144 333 144q197 0 303 -160q0 54 6 84q11 70 74 70q47 0 64 -28q16 -26 16 -85l-2 -159l-4 -310q0 -140 10 -291q0 -69 -88 -69q-45 0 -58 37q-14 39 -20 135q-102 -178 -332 -178q-192 0 -314 131t-122 317zM264 442q0 -132 83 -220 q83 -87 202 -87q135 0 223 91t88 237q0 154 -89 243t-210 89q-126 0 -212 -101q-85 -100 -85 -252zM297 1260q0 43 32 73q33 31 77 31t73 -30q29 -31 29 -72q0 -47 -31 -76t-82 -29q-41 0 -69 30q-29 31 -29 73zM623 1264q0 42 30 72t78 30q46 0 73 -30t27 -74 q0 -46 -30 -73q-31 -28 -80 -28q-41 0 -70 30q-28 29 -28 73z" />
<glyph unicode="&#xe5;" horiz-adv-x="1163" d="M92 436q0 217 134 362q134 144 333 144q197 0 303 -160q0 54 6 84q11 70 74 70q47 0 64 -28q16 -26 16 -85l-2 -159l-4 -310q0 -140 10 -291q0 -69 -88 -69q-45 0 -58 37q-14 39 -20 135q-102 -178 -332 -178q-192 0 -314 131t-122 317zM264 442q0 -132 83 -220 q83 -87 202 -87q135 0 223 91t88 237q0 154 -89 243t-210 89q-126 0 -212 -101q-85 -100 -85 -252zM340 1282q0 96 70 157q69 60 155 60q94 0 157 -56q64 -57 64 -149q0 -93 -63 -159t-160 -66q-87 0 -155 60t-68 153zM446 1288q0 -56 33 -87q34 -32 86 -32q51 0 84 36 q33 35 31 87q-1 51 -35 81q-33 30 -84 30q-46 0 -81 -32q-34 -31 -34 -83z" />
<glyph unicode="&#xe6;" horiz-adv-x="1679" d="M94 266q0 134 100 207t273 74q94 2 285 -8q-1 111 -76 184q-74 72 -189 72q-26 0 -68 -7q-36 -6 -57 -12q-16 -5 -58 -18q-33 -11 -48 -17q-34 -7 -63 12q-29 20 -29 56q0 45 45 72q112 65 293 65q117 -2 208 -58q92 -57 138 -153q56 95 150 153t204 58q166 0 280 -119 q113 -117 113 -262q0 -82 -25 -111q-26 -30 -128 -32h-210q-116 0 -190 -2h-120q0 -113 78 -194q80 -83 204 -83q118 0 226 64q42 26 67 26q27 0 49 -26q23 -28 23 -55q0 -64 -114 -115t-267 -51q-111 0 -209 61t-148 156q-114 -217 -354 -217q-168 0 -275 73 q-108 73 -108 207zM254 279q0 -73 64 -110q65 -38 163 -38q104 0 184 71q78 70 83 177l2 43q-102 6 -275 6q-221 2 -221 -149zM924 537q272 0 430 2q86 0 86 12q0 104 -68 177t-162 73q-116 0 -196 -80t-90 -184z" />
<glyph unicode="&#xe7;" horiz-adv-x="915" d="M88 436q1 198 133 355q130 155 340 155q137 0 244 -63q39 -27 39 -68q0 -29 -21 -54q-21 -26 -51 -26q-12 0 -82 29q-64 29 -139 29q-127 0 -211 -108t-84 -230q0 -134 78 -224t203 -90q109 0 176 43q61 33 80 33q28 0 50 -28q21 -27 21 -56q0 -33 -30 -57 q-106 -91 -271 -92l-28 -90q60 0 112 -41q51 -40 51 -121q0 -90 -57 -143q-56 -52 -145 -52q-56 0 -109 27q-45 27 -45 63q0 21 15 36t38 15q13 0 47 -15t64 -15q78 0 78 80q0 69 -92 69h-25q-29 2 -44 32q-15 31 -5 60l43 101q-174 27 -275 161q-100 132 -98 285z" />
<glyph unicode="&#xe8;" horiz-adv-x="1042" d="M92 428q0 213 133 365q134 153 326 153q169 0 285 -113t116 -255q0 -84 -27 -118t-128 -36q-90 -2 -144 -2q-113 0 -188 -1t-201 -1q5 -114 85 -196q81 -83 206 -83q122 0 223 68q52 24 68 24q28 0 52 -25q24 -26 24 -54q0 -45 -56 -80q-124 -88 -329 -88 q-183 0 -312 130t-133 312zM268 539q459 7 498 10q25 5 25 20q0 102 -69 168t-163 66q-116 0 -198 -80q-81 -80 -93 -184zM352 1399q0 26 26 49q25 22 52 22q40 0 64 -34l180 -224q18 -22 18 -45q0 -21 -19 -40t-42 -19q-21 0 -47 20q-146 143 -205 211q-27 33 -27 60z" />
<glyph unicode="&#xe9;" horiz-adv-x="1042" d="M92 428q0 213 133 365q134 153 326 153q169 0 285 -113t116 -255q0 -84 -27 -118t-128 -36q-90 -2 -144 -2q-113 0 -188 -1t-201 -1q5 -114 85 -196q81 -83 206 -83q122 0 223 68q52 24 68 24q28 0 52 -25q24 -26 24 -54q0 -45 -56 -80q-124 -88 -329 -88 q-183 0 -312 130t-133 312zM268 539q459 7 498 10q25 5 25 20q0 102 -69 168t-163 66q-116 0 -198 -80q-81 -80 -93 -184zM399 1167q0 23 19 45q3 4 80 91q71 81 112 131q28 34 60 34q31 0 56 -25q26 -26 26 -57q0 -22 -29 -51q-86 -96 -209 -209q-26 -20 -47 -20 q-23 0 -45 19q-23 20 -23 42z" />
<glyph unicode="&#xea;" horiz-adv-x="1042" d="M92 428q0 213 133 365q134 153 326 153q169 0 285 -113t116 -255q0 -84 -27 -118t-128 -36q-90 -2 -144 -2q-113 0 -188 -1t-201 -1q5 -114 85 -196q81 -83 206 -83q122 0 223 68q52 24 68 24q28 0 52 -25q24 -26 24 -54q0 -45 -56 -80q-124 -88 -329 -88 q-183 0 -312 130t-133 312zM268 539q459 7 498 10q25 5 25 20q0 102 -69 168t-163 66q-116 0 -198 -80q-81 -80 -93 -184zM268 1153q0 23 23 51l176 197q30 37 78 37q39 0 69 -33l179 -201q26 -33 26 -53q0 -19 -18 -38t-41 -19q-12 0 -49 24l-168 172q-150 -158 -170 -176 q-21 -18 -47 -18q-18 0 -38 18t-20 39z" />
<glyph unicode="&#xeb;" horiz-adv-x="1042" d="M92 428q0 213 133 365q134 153 326 153q169 0 285 -113t116 -255q0 -84 -27 -118t-128 -36q-90 -2 -144 -2q-113 0 -188 -1t-201 -1q5 -114 85 -196q81 -83 206 -83q122 0 223 68q52 24 68 24q28 0 52 -25q24 -26 24 -54q0 -45 -56 -80q-124 -88 -329 -88 q-183 0 -312 130t-133 312zM268 539q459 7 498 10q25 5 25 20q0 102 -69 168t-163 66q-116 0 -198 -80q-81 -80 -93 -184zM272 1260q0 43 32 73q33 31 77 31q45 0 74 -30q28 -29 28 -72q0 -48 -30 -76q-31 -29 -82 -29q-41 0 -70 30q-29 31 -29 73zM598 1264q0 41 31 72 q30 30 78 30q45 0 72 -30q28 -31 28 -74q0 -45 -31 -73t-80 -28q-40 0 -69 30q-29 31 -29 73z" />
<glyph unicode="&#xec;" horiz-adv-x="491" d="M57 1399q0 26 26 49q25 22 52 22q40 0 64 -34l180 -224q18 -22 18 -45q0 -21 -19 -40t-42 -19q-21 0 -47 20q-146 143 -205 211q-27 33 -27 60zM164 74v784q2 44 24 63t56 19q48 0 68 -25t20 -94q0 -128 -1 -234t-1 -237l2 -268q0 -92 -88 -92q-80 0 -80 84z" />
<glyph unicode="&#xed;" horiz-adv-x="491" d="M104 1167q0 23 19 45q3 4 80 91q71 81 112 131q28 34 60 34q31 0 56 -25q26 -26 26 -57q0 -22 -29 -51q-86 -96 -209 -209q-26 -20 -47 -20q-23 0 -45 19q-23 20 -23 42zM164 74v784q2 44 24 63t56 19q48 0 68 -25t20 -94q0 -128 -1 -234t-1 -237l2 -268q0 -92 -88 -92 q-80 0 -80 84z" />
<glyph unicode="&#xee;" horiz-adv-x="491" d="M-27 1153q0 23 23 51l176 197q30 37 78 37q39 0 69 -33l179 -201q26 -33 26 -53q0 -19 -18 -38t-41 -19q-11 0 -49 24l-168 172q-150 -158 -170 -176q-22 -18 -47 -18q-19 0 -38 18q-20 18 -20 39zM164 74v784q2 44 24 63t56 19q48 0 68 -25t20 -94q0 -128 -1 -234 t-1 -237l2 -268q0 -92 -88 -92q-80 0 -80 84z" />
<glyph unicode="&#xef;" horiz-adv-x="491" d="M-23 1260q0 43 32 73q33 31 77 31q46 0 74 -30q28 -29 28 -72q0 -48 -30 -76q-31 -29 -82 -29q-41 0 -70 30q-29 31 -29 73zM164 74v784q2 44 24 63t56 19q48 0 68 -25t20 -94q0 -128 -1 -234t-1 -237l2 -268q0 -92 -88 -92q-80 0 -80 84zM303 1264q0 41 31 72 q30 30 78 30q45 0 72 -30q28 -31 28 -74q0 -45 -31 -73t-80 -28q-41 0 -69 30q-29 31 -29 73z" />
<glyph unicode="&#xf0;" horiz-adv-x="1128" d="M96 444q0 203 131 329q130 126 308 132q94 4 181 -43q84 -45 140 -137q-5 232 -164 408l-129 -93q-18 -12 -37 -12t-38 19q-17 17 -17 38q0 33 39 54l96 69q-105 82 -227 109q-32 7 -48 37q-15 29 -5 57q12 39 47 51t73 2q172 -46 299 -161l111 77q23 17 41 17 q22 0 40 -21q17 -20 17 -41q0 -24 -49 -57l-80 -57q203 -246 201 -615q0 -110 -6 -178q-22 -212 -146 -327q-122 -113 -315 -113q-198 0 -331 128q-132 128 -132 328zM262 453q0 -140 82 -228t203 -88q127 0 215 87t88 220q0 130 -82 221t-209 91q-130 2 -213 -86 q-84 -88 -84 -217z" />
<glyph unicode="&#xf1;" horiz-adv-x="1132" d="M154 831q0 56 19 82q19 27 69 27q43 0 58 -22q14 -22 19 -74l3 -90q39 92 130 144t197 52q168 0 258 -106q90 -107 90 -295v-268v-185q0 -55 -20 -78q-21 -24 -72 -24q-80 0 -80 78q0 69 4 201q4 129 2 227q-5 296 -219 297q-71 0 -125 -23q-55 -24 -84 -57 q-31 -36 -49 -88t-24 -105q-6 -51 -6 -116v-342q0 -76 -88 -76q-80 0 -80 76q0 54 1 106t1 164v278zM266 1223q4 74 55 122q49 46 128 46q53 0 98 -31q27 -18 79 -62q37 -31 74 -32q55 0 60 80q1 21 21 35t40 14q23 0 42 -17q18 -17 18 -41q0 -96 -48 -144t-128 -48 q-43 1 -82 20q-37 18 -59 40q-24 23 -51 40q-33 20 -58 21q-61 0 -66 -68q-8 -47 -63 -47q-29 0 -45 19q-17 20 -15 53z" />
<glyph unicode="&#xf2;" horiz-adv-x="1118" d="M88 434q0 230 140 373q141 144 374 145q37 0 51 -14q183 -27 279 -165t96 -310q0 -208 -140 -344q-142 -137 -347 -137q-186 0 -319 127q-134 128 -134 325zM256 430q0 -127 86 -211t195 -84q131 0 226 92t95 242q0 139 -79 230q-80 93 -224 100q-134 -7 -217 -106 q-82 -97 -82 -263zM365 1399q0 27 25 49t52 22q40 0 64 -34l180 -224q19 -24 19 -45q0 -20 -20 -40q-19 -19 -42 -19q-21 0 -47 20q-146 143 -205 211q-26 32 -26 60z" />
<glyph unicode="&#xf3;" horiz-adv-x="1118" d="M88 434q0 230 140 373q141 144 374 145q37 0 51 -14q183 -27 279 -165t96 -310q0 -208 -140 -344q-142 -137 -347 -137q-186 0 -319 127q-134 128 -134 325zM256 430q0 -127 86 -211t195 -84q131 0 226 92t95 242q0 139 -79 230q-80 93 -224 100q-134 -7 -217 -106 q-82 -97 -82 -263zM412 1167q0 24 18 45q3 4 80 91q84 95 113 131q28 34 59 34t56 -25q26 -26 26 -57q0 -22 -29 -51q-86 -96 -209 -209q-26 -20 -47 -20q-23 0 -45 19t-22 42z" />
<glyph unicode="&#xf4;" horiz-adv-x="1118" d="M88 434q0 230 140 373q141 144 374 145q37 0 51 -14q183 -27 279 -165t96 -310q0 -208 -140 -344q-142 -137 -347 -137q-186 0 -319 127q-134 128 -134 325zM256 430q0 -127 86 -211t195 -84q131 0 226 92t95 242q0 139 -79 230q-80 93 -224 100q-134 -7 -217 -106 q-82 -97 -82 -263zM281 1153q0 25 22 51l176 197q30 37 78 37q40 0 70 -33l178 -201q26 -33 26 -53q0 -19 -18 -38t-41 -19q-12 0 -49 24l-168 172q-150 -158 -170 -176q-23 -18 -47 -18q-18 0 -38 18q-19 18 -19 39z" />
<glyph unicode="&#xf5;" horiz-adv-x="1118" d="M88 434q0 230 140 373q141 144 374 145q37 0 51 -14q183 -27 279 -165t96 -310q0 -208 -140 -344q-142 -137 -347 -137q-186 0 -319 127q-134 128 -134 325zM244 1223q4 75 54 122q49 46 128 46q53 0 98 -31q27 -18 79 -62q37 -31 75 -32q54 0 59 80q1 21 22 35 q20 14 40 14q23 0 42 -17q17 -16 17 -41q0 -96 -48 -144t-128 -48q-43 1 -82 20q-35 17 -58 40q-22 22 -52 40q-33 20 -58 21q-60 0 -65 -68q-8 -47 -64 -47q-29 0 -45 19q-16 18 -14 53zM256 430q0 -127 86 -211t195 -84q131 0 226 92t95 242q0 139 -79 230 q-80 93 -224 100q-134 -7 -217 -106q-82 -97 -82 -263z" />
<glyph unicode="&#xf6;" horiz-adv-x="1118" d="M88 434q0 230 140 373q141 144 374 145q37 0 51 -14q183 -27 279 -165t96 -310q0 -208 -140 -344q-142 -137 -347 -137q-186 0 -319 127q-134 128 -134 325zM256 430q0 -127 86 -211t195 -84q131 0 226 92t95 242q0 139 -79 230q-80 93 -224 100q-134 -7 -217 -106 q-82 -97 -82 -263zM285 1260q0 43 31 73q33 31 77 31q45 0 74 -30q29 -31 29 -72q0 -47 -31 -76t-82 -29q-41 0 -70 30q-28 29 -28 73zM610 1264q0 41 31 72q30 30 78 30q46 0 73 -30t27 -74q0 -45 -31 -73t-79 -28q-41 0 -70 30q-29 31 -29 73z" />
<glyph unicode="&#xf7;" horiz-adv-x="993" d="M72 567q2 64 100 64l682 -2q70 0 70 -70q0 -72 -103 -72q-74 -2 -197 -2q-198 0 -307 1t-182 1q-34 0 -51 25q-17 24 -12 55zM395 193q0 47 34 77q36 31 83 31q46 0 77 -31q29 -29 29 -77q0 -51 -32 -77q-34 -28 -84 -28q-46 0 -76 30q-31 31 -31 75zM399 924q0 47 34 77 q36 31 83 31t78 -31t31 -77q0 -50 -34 -78q-35 -29 -85 -29q-45 0 -76 31t-31 76z" />
<glyph unicode="&#xf8;" horiz-adv-x="1118" d="M88 438q0 228 139 370q140 143 373 144q32 0 53 -14q67 -12 125 -43l41 66q20 36 49 36q20 0 37 -14q19 -16 19 -33q0 -19 -29 -65l-29 -45q162 -136 162 -375q0 -210 -139 -346q-140 -137 -346 -137q-86 0 -181 43l-45 -74q-17 -31 -43 -31q-20 0 -38 15q-19 16 -19 36 q0 16 19 45l34 58q-182 136 -182 364zM256 436q0 -132 102 -221l340 549q-57 31 -141 35q-135 -6 -218 -103t-83 -260zM446 158q57 -23 93 -23q130 0 225 92q94 91 94 242q0 141 -80 227z" />
<glyph unicode="&#xf9;" horiz-adv-x="1146" d="M141 420q0 107 1 211t1 209q0 96 95 96q73 0 73 -86q0 -19 -2 -193t-2 -215q0 -134 52 -220q52 -87 167 -87q161 0 227 110t66 308l2 293q0 43 25 68q24 24 63 24q84 0 84 -90v-4q0 -4 -0.5 -11.5t-0.5 -17.5t-0.5 -25.5t-0.5 -31.5l-3 -177q-1 -54 1 -210 q0 -160 12 -301q0 -74 -81 -74q-68 0 -80 67q-4 70 -4 81q0 15 -0.5 29t-1 21t-0.5 9q-100 -219 -328 -219q-184 0 -274 117q-91 118 -91 319zM381 1399q0 26 26 49q25 22 52 22q39 0 63 -34l180 -224q19 -24 19 -45q0 -20 -20 -40q-19 -19 -42 -19q-21 0 -47 20 q-139 136 -204 211q-27 33 -27 60z" />
<glyph unicode="&#xfa;" horiz-adv-x="1146" d="M141 420q0 107 1 211t1 209q0 96 95 96q73 0 73 -86q0 -19 -2 -193t-2 -215q0 -134 52 -220q52 -87 167 -87q161 0 227 110t66 308l2 293q0 43 25 68q24 24 63 24q84 0 84 -90v-4q0 -4 -0.5 -11.5t-0.5 -17.5t-0.5 -25.5t-0.5 -31.5l-3 -177q-1 -54 1 -210 q0 -160 12 -301q0 -74 -81 -74q-68 0 -80 67q-4 70 -4 81q0 15 -0.5 29t-1 21t-0.5 9q-100 -219 -328 -219q-184 0 -274 117q-91 118 -91 319zM428 1167q0 24 18 45q3 4 80 91q84 95 113 131q28 34 59 34q32 0 57 -25t25 -57q0 -23 -28 -51q-86 -96 -209 -209 q-26 -20 -47 -20q-23 0 -45 19q-23 20 -23 42z" />
<glyph unicode="&#xfb;" horiz-adv-x="1146" d="M141 420q0 107 1 211t1 209q0 96 95 96q73 0 73 -86q0 -19 -2 -193t-2 -215q0 -134 52 -220q52 -87 167 -87q161 0 227 110t66 308l2 293q0 43 25 68q24 24 63 24q84 0 84 -90v-4q0 -4 -0.5 -11.5t-0.5 -17.5t-0.5 -25.5t-0.5 -31.5l-3 -177q-1 -54 1 -210 q0 -160 12 -301q0 -74 -81 -74q-68 0 -80 67q-4 70 -4 81q0 15 -0.5 29t-1 21t-0.5 9q-100 -219 -328 -219q-184 0 -274 117q-91 118 -91 319zM297 1153q0 25 22 51l177 197q30 37 77 37q40 0 70 -33l178 -201q27 -34 27 -53q0 -17 -19 -38q-18 -19 -41 -19q-12 0 -49 24 l-168 172q-150 -158 -170 -176q-21 -18 -47 -18q-18 0 -38 18q-19 18 -19 39z" />
<glyph unicode="&#xfc;" horiz-adv-x="1146" d="M141 420q0 107 1 211t1 209q0 96 95 96q73 0 73 -86q0 -19 -2 -193t-2 -215q0 -134 52 -220q52 -87 167 -87q161 0 227 110t66 308l2 293q0 43 25 68q24 24 63 24q84 0 84 -90v-4q0 -4 -0.5 -11.5t-0.5 -17.5t-0.5 -25.5t-0.5 -31.5l-3 -177q-1 -54 1 -210 q0 -160 12 -301q0 -74 -81 -74q-68 0 -80 67q-4 70 -4 81q0 15 -0.5 29t-1 21t-0.5 9q-100 -219 -328 -219q-184 0 -274 117q-91 118 -91 319zM301 1260q0 43 32 73q33 31 77 31t73 -30q29 -31 29 -72q0 -47 -31 -76t-82 -29q-41 0 -69 30q-29 31 -29 73zM627 1264 q0 42 30 72t78 30q46 0 73 -30q28 -31 28 -74q0 -45 -31 -73t-80 -28q-41 0 -70 30q-28 29 -28 73z" />
<glyph unicode="&#xfd;" horiz-adv-x="1009" d="M35 -373q0 78 88 78q69 0 105 24q37 25 83 103q45 74 111 211l-80 166l-250 559q-33 69 -33 100q0 32 28 54q26 20 60 20q44 0 68 -41l295 -704q124 278 276 667q16 42 32 58q18 18 50 18q36 0 63 -21t27 -53q0 -28 -14 -59q-166 -397 -473 -1032q-127 -234 -297 -234 q-139 0 -139 86zM362 1167q0 23 19 45q3 4 80 91q71 81 112 131q28 34 60 34q31 0 56 -25q26 -26 26 -57q0 -22 -29 -51q-86 -96 -209 -209q-26 -20 -47 -20q-23 0 -45 19q-23 20 -23 42z" />
<glyph unicode="&#xfe;" horiz-adv-x="1171" d="M145 1391q1 84 80 84q39 0 65 -17q25 -16 23 -61q0 -236 -1 -334t-1 -218v-73q99 180 336 180q188 0 311 -142t123 -331q0 -209 -132 -354t-324 -145q-103 0 -186 47t-128 129q0 -53 2 -285t2 -233q-1 -84 -86 -84q-49 0 -65 25q-17 26 -17 87l5 842zM307 463 q0 -157 83 -245q82 -87 212 -87q129 0 219 94q90 95 90 252q0 139 -84 231q-84 91 -206 91q-143 0 -228 -88q-86 -89 -86 -248z" />
<glyph unicode="&#xff;" horiz-adv-x="1009" d="M35 -373q0 78 88 78q69 0 105 24q37 25 83 103q45 74 111 211l-80 166l-250 559q-33 69 -33 100q0 32 28 54q26 20 60 20q44 0 68 -41l295 -704q124 278 276 667q16 42 32 58q18 18 50 18q36 0 63 -21t27 -53q0 -28 -14 -59q-166 -397 -473 -1032q-127 -234 -297 -234 q-139 0 -139 86zM236 1260q0 43 31 73q33 31 77 31q46 0 74 -30q28 -29 28 -72q0 -48 -30 -76q-31 -29 -82 -29q-42 0 -70 30q-28 29 -28 73zM561 1264q0 41 31 72q30 30 78 30q45 0 72 -30q28 -31 28 -74q0 -45 -31 -73t-80 -28q-41 0 -69 30q-29 31 -29 73z" />
<glyph unicode="&#x152;" horiz-adv-x="2193" d="M104 659q0 168 59 313q59 144 153 237q95 94 216 146q119 52 248 50q170 0 302 -70q129 -68 208 -188v117q4 66 32 97q27 30 99 30q2 0 142 -2q35 0 253 2l218 2q84 0 84 -74q0 -80 -80 -80h-582q-4 -156 -4 -246v-241h102h392q43 -4 62 -19q18 -14 17 -51q0 -37 -18 -55 q-19 -19 -68 -19q-115 0 -253 -1t-234 -1q-2 -16 -2 -37v-417q70 0 269 3t311 3q84 0 84 -76q0 -86 -105 -86q-127 0 -261 1t-280 1q-111 -1 -143 28q-33 30 -37 124q-2 36 -2 114q-186 -282 -516 -282q-270 0 -467 188q-199 190 -199 489zM274 682q0 -238 152 -388 q153 -151 369 -151q225 0 362 170t137 410q-1 240 -154 382q-152 142 -376 142q-196 0 -343 -162t-147 -403z" />
<glyph unicode="&#x153;" horiz-adv-x="1746" d="M76 438q0 225 140 368q141 144 355 144q32 0 47 -14q104 -12 183 -69q81 -58 123 -144q49 99 147 161q97 62 209 62q171 0 284 -113t113 -264q0 -82 -25 -110q-26 -30 -126 -31q-98 -4 -312 -7q-191 -3 -208 -3q6 -110 84 -193q78 -82 194 -82q85 0 178 46q96 47 115 47 q27 0 48 -27q22 -28 22 -57q0 -37 -56 -76q-116 -88 -321 -88q-112 0 -207 61q-97 62 -148 158q-61 -104 -160 -162q-100 -59 -233 -59q-179 0 -312 130q-134 131 -134 322zM246 436q0 -127 86 -213t192 -86q134 0 224 90t90 242q0 141 -78 231q-79 92 -219 99 q-134 -7 -215 -104q-80 -95 -80 -259zM1006 537q454 0 518 20q0 109 -69 178q-70 70 -169 70q-112 0 -191 -81q-78 -80 -89 -187z" />
<glyph unicode="&#x178;" horiz-adv-x="1226" d="M51 1313q0 31 28 56q27 24 62 24q39 0 84 -68q388 -620 393 -625q9 13 42 68q30 50 126 204q35 56 112.5 179.5t115.5 183.5q39 60 80 60q34 0 60 -23t26 -53q0 -26 -29 -70l-453 -694q0 -139 -1 -243t-1 -242q0 -36 -24 -55q-23 -19 -62 -19q-38 0 -61 22q-25 23 -25 62 t1 71t1 72q0 102 1 170t1 156l-10 24l-436 664q-31 51 -31 76zM346 1649q0 43 32 73q33 31 77 31q45 0 73 -30q29 -31 29 -72q0 -47 -31 -76t-82 -29q-40 0 -69 30q-29 31 -29 73zM672 1653q0 42 30 72t78 30q46 0 73 -30q28 -31 28 -74q0 -45 -31 -73t-80 -28q-42 0 -70 30 q-28 29 -28 73z" />
<glyph unicode="&#x2c6;" horiz-adv-x="712" d="M82 1153q0 25 22 51l177 197q30 37 77 37q40 0 70 -33l178 -201q27 -34 27 -53q0 -17 -19 -38q-18 -19 -41 -19q-11 0 -49 24l-168 172q-150 -158 -170 -176q-23 -18 -47 -18q-19 0 -38 18t-19 39z" />
<glyph unicode="&#x2dc;" horiz-adv-x="780" d="M84 1223q4 75 54 122q49 46 128 46q54 0 99 -31q21 -14 78 -62q37 -31 75 -32q55 0 60 80q1 21 21 35t40 14q23 0 42 -17q17 -16 17 -41q0 -96 -48 -144t-128 -48q-43 1 -82 20q-35 17 -58 40q-24 23 -51 40q-33 20 -59 21q-60 0 -65 -68q-8 -47 -64 -47q-29 0 -45 19 q-16 18 -14 53z" />
<glyph unicode="&#x2000;" horiz-adv-x="930" />
<glyph unicode="&#x2001;" horiz-adv-x="1860" />
<glyph unicode="&#x2002;" horiz-adv-x="930" />
<glyph unicode="&#x2003;" horiz-adv-x="1860" />
<glyph unicode="&#x2004;" horiz-adv-x="620" />
<glyph unicode="&#x2005;" horiz-adv-x="465" />
<glyph unicode="&#x2006;" horiz-adv-x="310" />
<glyph unicode="&#x2007;" horiz-adv-x="310" />
<glyph unicode="&#x2008;" horiz-adv-x="232" />
<glyph unicode="&#x2009;" horiz-adv-x="372" />
<glyph unicode="&#x200a;" horiz-adv-x="103" />
<glyph unicode="&#x2010;" horiz-adv-x="722" d="M80 489q0 78 96 78h383q82 0 82 -71q0 -44 -24 -63q-23 -19 -82 -19h-375q-39 0 -60 21q-20 20 -20 54z" />
<glyph unicode="&#x2011;" horiz-adv-x="722" d="M80 489q0 78 96 78h383q82 0 82 -71q0 -44 -24 -63q-23 -19 -82 -19h-375q-39 0 -60 21q-20 20 -20 54z" />
<glyph unicode="&#x2012;" horiz-adv-x="722" d="M80 489q0 78 96 78h383q82 0 82 -71q0 -44 -24 -63q-23 -19 -82 -19h-375q-39 0 -60 21q-20 20 -20 54z" />
<glyph unicode="&#x2013;" horiz-adv-x="1024" d="M23 494q0 75 102 75q187 0 417 -1t382 -1q77 0 77 -73q0 -80 -108 -80h-795q-39 0 -58 23t-17 57z" />
<glyph unicode="&#x2014;" horiz-adv-x="2048" d="M55 494q0 77 103 77q347 0 897 -1t862 -1q76 0 76 -75q0 -41 -25 -60q-24 -18 -84 -18h-1753q-39 0 -58 22q-20 23 -18 56z" />
<glyph unicode="&#x2018;" horiz-adv-x="411" d="M72 1171q0 68 45 140t112 112q22 11 33 11q18 0 35 -15q16 -15 16 -33q0 -21 -22 -43q-72 -51 -72 -98v-8h4q31 -2 58 -29q26 -26 26 -67q2 -47 -32 -81t-78 -34q-57 0 -91 40t-34 105z" />
<glyph unicode="&#x2019;" horiz-adv-x="411" d="M86 1075q0 26 23 41q69 51 69 101v8h-2q-32 1 -59 28t-27 68q0 47 33 80t78 33q57 0 91 -39q34 -38 34 -105q0 -68 -45 -140q-46 -74 -111 -112q-29 -10 -35 -10q-20 0 -34 13q-15 13 -15 34z" />
<glyph unicode="&#x201a;" horiz-adv-x="411" d="M86 -150q0 29 23 44q69 52 69 98v8h-2q-31 1 -59 29q-27 27 -27 69q0 44 33 79q33 34 78 34q57 0 91 -39q34 -38 34 -106t-45 -140q-44 -70 -111 -110q-20 -13 -35 -13q-19 0 -34 15t-15 32z" />
<glyph unicode="&#x201c;" horiz-adv-x="716" d="M72 1171q0 68 45 140q44 71 112 110q13 13 33 13q18 0 35 -15q16 -15 16 -33q0 -25 -22 -43q-72 -51 -72 -98v-8h4q31 -2 58 -29q26 -26 26 -69q2 -45 -32 -79t-78 -34q-56 0 -91 39q-34 38 -34 106zM381 1171q0 68 45 140q44 70 113 110q13 13 32 13t35 -15 q17 -15 17 -33q0 -25 -23 -43q-72 -51 -72 -98v-8h4q31 -2 58 -29q26 -26 26 -69q2 -46 -31 -79q-34 -34 -79 -34q-56 0 -90 39q-35 40 -35 106z" />
<glyph unicode="&#x201d;" horiz-adv-x="720" d="M86 1073q0 25 23 43q69 51 69 98v9h-2q-32 1 -59 28t-27 68q0 47 33 81t78 34q57 0 91 -40t34 -106q0 -67 -45 -139q-46 -73 -111 -113q-29 -10 -35 -10q-20 0 -34 13q-15 13 -15 34zM395 1073q0 25 23 43q69 51 69 98v9h-2q-32 1 -59 28t-27 68q0 47 33 81t78 34 q57 0 91 -40t34 -106q0 -67 -45 -139q-46 -73 -111 -113q-29 -10 -35 -10q-19 0 -33 13q-16 14 -16 34z" />
<glyph unicode="&#x201e;" horiz-adv-x="718" d="M86 -150q0 29 23 44q69 52 69 98v8h-2q-31 1 -59 29q-27 27 -27 69q0 44 33 79q33 34 78 34q57 0 91 -39q34 -38 34 -106t-45 -140q-44 -70 -111 -110q-20 -13 -35 -13q-19 0 -34 15t-15 32zM393 -150q0 26 23 44q71 50 71 98v8h-4q-32 1 -58 29q-27 28 -28 69 q0 45 34 79t79 34q54 0 89 -39q34 -38 34 -106t-45 -140q-44 -70 -111 -110q-19 -13 -33 -13q-18 0 -34 15q-17 15 -17 32z" />
<glyph unicode="&#x2022;" horiz-adv-x="692" d="M55 481q0 131 84 210q83 79 213 79q125 0 204 -82t79 -207q0 -128 -83 -205q-81 -75 -214 -75q-129 0 -205 75q-78 76 -78 205z" />
<glyph unicode="&#x2026;" horiz-adv-x="1263" d="M92 104q0 49 35 82t88 33q49 0 81 -33q32 -34 32 -82q0 -52 -35 -82t-90 -30q-48 0 -79 33q-32 34 -32 79zM514 104q0 49 35 82t86 33t83 -33q32 -34 32 -82q0 -52 -35 -82t-90 -30q-47 0 -79 33q-32 34 -32 79zM934 104q0 49 35 82t88 33q51 0 83 -33q31 -32 31 -82 q0 -52 -34 -82q-35 -30 -90 -30q-47 0 -80 33t-33 79z" />
<glyph unicode="&#x202f;" horiz-adv-x="372" />
<glyph unicode="&#x2039;" horiz-adv-x="565" d="M74 487q0 39 39 80q57 60 73 76q26 26 102 100q38 37 79 78q28 23 49 23q22 0 44 -19q21 -18 21 -41q0 -24 -30 -57l-209 -240l215 -239q35 -35 35 -62q0 -20 -22 -40q-20 -19 -44 -19q-23 0 -57 29l-252 243q-43 46 -43 88z" />
<glyph unicode="&#x203a;" horiz-adv-x="565" d="M74 182q0 30 32 62l216 239l-209 240q-31 36 -31 57q0 23 21 41q22 19 44 19q24 0 52 -23q18 -19 122 -123q107 -107 132 -133q39 -43 39 -78q0 -42 -46 -88l-251 -243q-31 -31 -58 -29q-23 0 -43 19t-20 40z" />
<glyph unicode="&#x205f;" horiz-adv-x="465" />
<glyph unicode="&#x20ac;" horiz-adv-x="1187" d="M41 547q0 61 84 61h90q-2 22 -2 51q0 54 6 105h-78q-73 0 -73 61q0 68 82 68h94q57 234 220 370q162 135 363 134q117 0 228 -39q59 -24 59 -80q0 -80 -70 -80q-16 0 -88 21q-69 20 -139 20q-140 0 -246 -95q-102 -92 -153 -249q204 2 426 2q69 0 69 -66q0 -65 -71 -65 h-114h-180h-161q-4 -55 -4 -96v-62h434q68 0 68 -63q0 -70 -101 -70q-182 0 -378 2q88 -325 425 -325q62 0 138 23q79 24 100 24q26 -1 46 -31q20 -29 20 -57q0 -57 -95 -92q-89 -33 -233 -31q-220 1 -377 130q-156 127 -199 361h-106q-84 0 -84 68z" />
<glyph unicode="&#x2122;" horiz-adv-x="1372" d="M29 1335q0 49 47 51l223 -2q29 0 74 1t135 1q49 0 49 -45q0 -55 -51 -55h-158l2 -409q0 -29 1 -52t1 -57q0 -57 -59 -57q-51 0 -49 53v364v158h-170q-45 0 -45 49zM571 764q32 212 80 582q7 38 66 38q39 0 57 -49l162 -456l166 448q22 48 57 59h21q30 0 45 -24l63 -500 l12 -96q4 -57 -51 -57q-47 0 -51 45l-49 444l-156 -420q-24 -45 -65 -45q-24 0 -32 11q-8 10 -19 36l-150 422l-53 -450q-6 -41 -51 -41q-24 0 -39 15t-13 38z" />
<glyph unicode="&#x25fc;" horiz-adv-x="942" d="M0 0v942h942v-942h-942z" />
</font>
</defs>
</svg>
