<svg id="Layer_1" data-name="Layer 1" xmlns="http://www.w3.org/2000/svg" viewBox="0 0 300 140"><defs><style>.cls-1{fill:#000;}.cls-2{fill:none;}</style></defs><title>FINALY</title><path class="cls-1" d="M158.13,79.25h5.6v3.41a11.48,11.48,0,0,1-4.55.86c-4.88,0-7.69-3.31-7.69-7.65s2.73-7.58,6.93-7.58a6.45,6.45,0,0,1,5.2,2.12l3.25-3.21C164.95,65,162.22,64,158.42,64c-7,0-11.84,5-11.84,11.88s5,11.92,12.59,11.92a15.11,15.11,0,0,0,8.91-2.7V75h-10v4.2Zm29.18-3.1h-9.93V64.26h-4.79V87.48h4.79V80.41h9.93v7.06h4.79V64.26h-4.79V76.15Zm42.29-1.61a4.31,4.31,0,0,0,3.29-4.27c0-3.28-2.42-6-6.76-6h-9V87.48h9.39c4.85,0,7.78-3,7.78-7.17A5.56,5.56,0,0,0,229.61,74.54Zm-7.67-6.08h3.92a2.08,2.08,0,0,1,2.32,2.18c0,1.33-1,2.19-2.56,2.19h-3.68V68.46Zm4.39,14.82h-4.39V76.9h4.12c2.18,0,3.45,1.3,3.45,3.17A3,3,0,0,1,226.33,83.28ZM195.61,68.46h6.62v19H207v-19h6.62v-4.2h-18v4.2Zm89.78,9.28a41.54,41.54,0,0,0-.34-4.23,35,35,0,0,0,2.77,3.18l11.72,11H300V64.26h-4.48V74c0,1.6.31,4.23,0.31,4.23A31.78,31.78,0,0,0,293.1,75l-11.7-11h-0.49V87.48h4.48V77.75ZM236.73,58h15.89V54.36H236.73V58Zm25.52,26.85h9.43l1.1,2.63h5L267.16,64.06h-0.41L256.54,87.48h4.61Zm3.28-8a42.62,42.62,0,0,0,1.37-4.16s0.72,2.52,1.4,4.16l1.67,4h-6.11Zm-12.19-8.36v-4.2H238V87.48h15.84v-4.2H242.75V79.93h9.33v-4.1h-9.33V68.46h10.58ZM37.76,60.23a4.65,4.65,0,0,0,1.1-.14,25.76,25.76,0,0,0,13.78-8,13.28,13.28,0,0,1,4-3.16l0.12,0.15q-0.84,1.19-1.62,2.43c-7.8,12.57-8.68,27-2.42,39.71,5,10.15,13.35,16,22.86,16h0a20.58,20.58,0,0,0,16.56-8.11c3.87-5.21,4.81-12,2.68-19A20.75,20.75,0,0,1,94,71.06,37.7,37.7,0,0,1,97.6,60.61c0.41-.9.82-1.79,1.21-2.7,2.66-6.24,4.2-12.79-3.76-20.51a16.49,16.49,0,0,0-11.74-4.64c-5.74,0-12,2.55-17.54,6.88a7.08,7.08,0,0,0-1-.7,9.53,9.53,0,0,0-5.7-1.48c-6.5,0-16.65,3.32-19.58,4.64a6,6,0,0,0-3.18,3.59,5.43,5.43,0,0,0,.07,3.53,14.53,14.53,0,0,1-1.46,1.59,5.87,5.87,0,0,0-1.54,6.39A4.74,4.74,0,0,0,37.76,60.23ZM87.89,96a15.32,15.32,0,0,1-12.33,6h0c-7.42,0-14-4.75-18.13-13-5.45-11-4.65-23.6,2.17-34.58L60,53.7A44.08,44.08,0,0,0,84.12,70.35c1.49,0.39,3,.72,4.57,1a26,26,0,0,0,1.06,10.35C91.39,87.08,90.73,92.16,87.89,96ZM83.31,38a11.21,11.21,0,0,1,8.07,3.15c4.7,4.57,5,8,3.52,12.21a7.22,7.22,0,0,0-1.72-.5A54.45,54.45,0,0,1,74,46.1a45.62,45.62,0,0,1-4.26-2.84C74.21,40,79,38,83.31,38ZM37.74,53.71a12.87,12.87,0,0,0,2.63-3.27,2.59,2.59,0,0,0-.15-2.55,1.7,1.7,0,0,1,.93-2.11C44,44.49,53.56,41.5,59.08,41.5a5.56,5.56,0,0,1,3.48.82l0.05,0A3.66,3.66,0,0,1,64,43.64a25.42,25.42,0,0,0,2.55,2.26,56.43,56.43,0,0,0,26,11,3.4,3.4,0,0,1,.83.25L92.8,58.41a52.23,52.23,0,0,0-3.41,9q-2.2-.38-4.25-0.92c-12-3.16-19-11.14-22.65-16.18-1.08-1.48-1.89-2.71-2.45-3.48-0.44-.45.12-1.43,0.27-2.09,0.09-.38,0-0.65-0.4-0.65H59.74C48.8,45.33,51.18,52.9,37.9,56.17l-0.13,0C37.06,56.19,36.57,54.85,37.74,53.71ZM142.45,64.26h-4.77V87.48h4.77V64.26ZM123.37,80.41h9.25V76.15h-9.25V68.46h10.17v-4.2H118.59V87.48h4.78V80.41Z"/><rect class="cls-2" width="300" height="140"/></svg>