<svg id="Layer_1" data-name="Layer 1" xmlns="http://www.w3.org/2000/svg" viewBox="0 0 215 100"><title>Black</title><path d="M109.91,56.17h3.74v2.28a7.66,7.66,0,0,1-3,.57,4.83,4.83,0,0,1-5.13-5.1c0-2.89,1.82-5.06,4.63-5.06a4.3,4.3,0,0,1,3.47,1.41l2.17-2.14c-1.29-1.46-3.11-2.14-5.64-2.14a7.61,7.61,0,0,0-7.9,7.93c0,4.58,3.35,8,8.41,8a10.09,10.09,0,0,0,6-1.8v-6.7h-6.65v2.8Zm19.48-2.07h-6.63V46.17h-3.2V61.67h3.2V57h6.63v4.71h3.19V46.17h-3.19V54.1ZM157.62,53a2.88,2.88,0,0,0,2.19-2.85c0-2.19-1.62-4-4.52-4h-6V61.67h6.26c3.24,0,5.19-2,5.19-4.78A3.71,3.71,0,0,0,157.62,53ZM152.5,49h2.62a1.39,1.39,0,0,1,1.55,1.46A1.5,1.5,0,0,1,155,51.89H152.5V49Zm2.93,9.89H152.5V54.6h2.75a2.06,2.06,0,0,1,2.3,2.12A2,2,0,0,1,155.43,58.86ZM134.93,49h4.42V61.67h3.19V49H147v-2.8h-12V49Zm59.93,6.2a27.73,27.73,0,0,0-.22-2.82,23.33,23.33,0,0,0,1.85,2.12l7.82,7.34h0.31V46.17h-3v6.49c0,1.07.21,2.82,0.21,2.82A21.22,21.22,0,0,0,200,53.37L192.19,46h-0.32V61.67h3v-6.5ZM162.37,42H173V39.56H162.37V42Zm17,17.92h6.29l0.73,1.75h3.34L182.69,46h-0.27L175.6,61.67h3.08Zm2.19-5.35a28.45,28.45,0,0,0,.91-2.78s0.48,1.69.93,2.78l1.11,2.69h-4.08ZM173.46,49v-2.8H163.2V61.67h10.57v-2.8H166.4V56.63h6.23V53.89H166.4V49h7.06ZM29.57,43.48a3.1,3.1,0,0,0,.73-0.09,17.2,17.2,0,0,0,9.2-5.31A8.87,8.87,0,0,1,42.16,36l0.08,0.1q-0.56.79-1.08,1.62c-5.21,8.39-5.8,18.05-1.61,26.51C42.9,71,48.45,74.86,54.8,74.86h0a13.74,13.74,0,0,0,11.05-5.41c2.58-3.48,3.21-8,1.79-12.67a13.85,13.85,0,0,1-.51-6.07,25.17,25.17,0,0,1,2.38-7c0.27-.6.54-1.2,0.81-1.8,1.78-4.17,2.81-8.54-2.51-13.69A11,11,0,0,0,60,25.14c-3.83,0-8,1.7-11.71,4.59a4.72,4.72,0,0,0-.66-0.47,6.36,6.36,0,0,0-3.81-1c-4.34,0-11.11,2.21-13.07,3.09a4,4,0,0,0-2.12,2.4,3.62,3.62,0,0,0,0,2.36,9.7,9.7,0,0,1-1,1.06,3.92,3.92,0,0,0-1,4.27A3.16,3.16,0,0,0,29.57,43.48ZM63,67.35a10.22,10.22,0,0,1-8.23,4h0c-5,0-9.36-3.17-12.1-8.7-3.63-7.34-3.11-15.75,1.45-23.08l0.27-.43A29.42,29.42,0,0,0,60.51,50.23c1,0.26,2,.48,3.05.66a17.38,17.38,0,0,0,.71,6.91C65.36,61.4,64.92,64.79,63,67.35ZM60,28.67a7.48,7.48,0,0,1,5.39,2.1c3.14,3,3.31,5.34,2.35,8.15a4.82,4.82,0,0,0-1.15-.33A36.34,36.34,0,0,1,53.77,34a30.45,30.45,0,0,1-2.84-1.9A15.91,15.91,0,0,1,60,28.67ZM29.56,39.12a8.59,8.59,0,0,0,1.76-2.18,1.73,1.73,0,0,0-.1-1.7,1.14,1.14,0,0,1,.62-1.41C33.75,33,40.11,31,43.8,31a3.71,3.71,0,0,1,2.33.55l0,0a2.44,2.44,0,0,1,.93.86,17,17,0,0,0,1.7,1.51,37.66,37.66,0,0,0,17.34,7.33,2.27,2.27,0,0,1,.56.17l-0.39.86a34.86,34.86,0,0,0-2.27,6q-1.47-.25-2.84-0.61a27.16,27.16,0,0,1-15.12-10.8c-0.72-1-1.26-1.81-1.64-2.32-0.29-.3.08-1,0.18-1.4,0.06-.25,0-0.43-0.27-0.43H44.24c-7.3.85-5.71,5.91-14.58,8.09H29.57C29.1,40.78,28.77,39.89,29.56,39.12Zm69.89,7H96.26V61.67h3.19V46.17ZM86.71,57h6.17V54.1H86.71V49H93.5v-2.8h-10V61.67h3.19V57Z"/></svg>