<?xml version="1.0" encoding="utf-8"?>
<!-- Generator: Adobe Illustrator 20.0.0, SVG Export Plug-In . SVG Version: 6.00 Build 0)  -->
<svg version="1.1" id="Livello_1" xmlns="http://www.w3.org/2000/svg" xmlns:xlink="http://www.w3.org/1999/xlink" x="0px" y="0px"
	 viewBox="0 0 35.9942627 35.9942627" style="enable-background:new 0 0 35.9942627 35.9942627;" xml:space="preserve">
<g>
	<g>
		<path style="fill:#24B34B;" d="M17.9970703,34.9942627C8.625,34.9942627,1,27.3692627,1,17.9971924
			S8.625,1.0001221,17.9970703,1.0001221s16.9970703,7.625,16.9970703,16.9970703S27.3691406,34.9942627,17.9970703,34.9942627z"/>
		<path style="fill:#24B34B;" d="M17.9971313,2c8.8349609,0,15.9971313,7.1621704,15.9971313,15.9971313
			s-7.1621704,15.9971313-15.9971313,15.9971313S2,26.8320923,2,17.9971313S9.1621704,2,17.9971313,2 M17.9971313,0
			C8.0734863,0,0,8.0734863,0,17.9971313s8.0734863,17.9971313,17.9971313,17.9971313s17.9971313-8.0734863,17.9971313-17.9971313
			S27.9207764,0,17.9971313,0L17.9971313,0z"/>
	</g>
	<path style="fill:#FFFFFF;" d="M24.612215,13.0694027"/>
	<g>
		<defs>
			<circle id="SVGID_1_" cx="17.9971333" cy="17.9971294" r="15.9971333"/>
		</defs>
		<clipPath id="SVGID_2_">
			<use xlink:href="#SVGID_1_"  style="overflow:visible;"/>
		</clipPath>
		<path style="clip-path:url(#SVGID_2_);fill:#FFFFFF;" d="M16.3744411,14.5219688h1.6226959v-2.4393654
			c0-0.6232405-0.5099277-1.1331692-1.1331768-1.1331692h-1.7441025c-1.429615,0-2.5993013,1.1696863-2.5993013,2.599309v3.2404127
			h3.7001219C14.8662558,15.9647245,15.5370197,14.6478462,16.3744411,14.5219688z"/>
		<path style="clip-path:url(#SVGID_2_);fill:#FFFFFF;" d="M18.0837421,22.7662888h5.5781746
			c0.8789368,0,1.5980663-0.7191296,1.5980663-1.5980663V16.120039c0-0.8789368-0.7191296-1.5980663-1.5980663-1.5980663h-5.5781746
			c-0.8789368,0-1.5980663,0.7191296-1.5980663,1.5980663v5.0481834
			C16.4856758,22.0471592,17.2048054,22.7662888,18.0837421,22.7662888z"/>
		<path style="clip-path:url(#SVGID_2_);fill:#8ACA8D;" d="M21.1672688,13.2571688l-4.7928276,1.2648001
			c-0.8374214,0.1258774-1.5081854,1.4427557-0.1537628,2.2671871c0,3.3271713-2.3784208,2.5910702-2.3784208,1.1483154v7.4787769
			h5.0120268v-3.9716644h1.5306988c2.2768192,0,4.1225471-1.845726,4.1225471-4.1225471v-1.7004395
			c0-0.6549635-0.1534233-1.2738485-0.4252205-1.8237877C22.8063183,11.5775738,21.853157,13.2571688,21.1672688,13.2571688z"/>
		<path style="clip-path:url(#SVGID_2_);fill:#FFFFFF;" d="M19.7245178,25.4162483h-7.5769291
			c-2.7206211,0-4.9465842,2.2259636-4.9465842,4.9465847v4.9465961h17.4700985V30.362833
			C24.6711025,27.6422119,22.4451408,25.4162483,19.7245178,25.4162483z"/>
		<path style="clip-path:url(#SVGID_2_);fill:#FFFFFF;" d="M21.7267094,25.4162483h-7.5769291
			c-2.7206221,0-4.9465847,2.2259636-4.9465847,4.9465847v4.9465961h17.4700985V30.362833
			C26.6732941,27.6422119,24.4473305,25.4162483,21.7267094,25.4162483z"/>
	</g>
	<path style="fill:#FFFFFF;" d="M13.9497347,22.7662888h2.2709436v-8.3326521h-3.7001266v6.9034681
		C12.5205517,22.126421,13.1604185,22.7662888,13.9497347,22.7662888z"/>
	<path style="fill:#FFFFFF;" d="M24.612215,13.0694027"/>
	<path style="fill:#FFFFFF;" d="M12.5386276,13.8938341c0-3.466651,3.1815033-5.1625128,5.3407288-5.1625128
		c1.7768536,0,4.185955,0.5201778,4.0976219,2.5223684c-0.0908051,2.0582361,0.6902943-0.0098143,0.0441666,1.0894279
		c-3.3517914,6.261754-7.1578569,5.4275045-7.6505299,4.4460382"/>
	<path style="fill:#FFFFFF;" d="M20.6450539,11.6757202c0.4122162,1.1956863,2.0500393,3.621623,3.8624763,3.621623v1.6635733
		l0.7524529,0.103054v-3.0270014c0-2.6207571-0.647768-4.8149147-3.0621738-4.9474125
		c-2.7831764-0.1527348-3.5549049,2.5763493-3.6216106,2.5763493c-4.2691689,0,1.4632034,0.5986938,1.4632034,0.5986938
		L20.6450539,11.6757202z"/>
</g>
</svg>
